<?xml version="1.0" encoding="UTF-8" standalone="no"?><!DOCTYPE svg PUBLIC "-//W3C//DTD SVG 1.1//EN" "http://www.w3.org/Graphics/SVG/1.1/DTD/svg11.dtd"><svg width="100%" height="100%" viewBox="0 0 158 45" version="1.1" xmlns="http://www.w3.org/2000/svg" xmlns:xlink="http://www.w3.org/1999/xlink" xml:space="preserve" xmlns:serif="http://www.serif.com/" style="fill-rule:evenodd;clip-rule:evenodd;stroke-linejoin:round;stroke-miterlimit:2;"><rect id="arrow-see-more" x="0" y="0" width="157.917" height="44.814" style="fill:none;"/><clipPath id="_clip1"><rect x="0" y="0" width="157.917" height="44.814"/></clipPath><g clip-path="url(#_clip1)"><path d="M93.666,8.048c-3.783,1.011 -9.771,4.193 -10.555,4.61c-6.279,3.337 -14.621,8.961 -28.625,12.817c-10.485,2.887 -19.955,2.95 -21.708,2.961c-2.439,0.016 -16.546,0.109 -29.983,-5.547c-1.225,-0.516 -2.029,-0.924 -2.03,-0.925c-0.257,-0.286 -0.638,-0.501 -0.765,-0.864c-0.005,-0.015 0.058,-1.161 0.064,-1.167c0.286,-0.257 0.499,-0.638 0.862,-0.765c0.75,-0.264 0.767,-0.091 1.51,0.201c2.812,1.105 10.514,3.588 21.188,4.009c28.23,1.114 48.431,-12.686 53.395,-15.613c14.998,-8.843 20.332,-8.626 23.192,-6.036c4.161,3.769 0.015,10.383 -0.399,11.109c-2.476,4.342 -7.308,10.047 -13.367,15.63c4.851,-1.46 10.339,-2.925 16.439,-4.268c0.115,-0.025 7.061,-1.501 13.971,-2.424c18.199,-2.43 29.677,-1.526 34.284,-1.448c0.093,0.002 0.628,0.011 1.067,0.467c0.011,0.011 0.429,1.083 0.426,1.091c-0.153,0.352 -0.19,0.787 -0.466,1.053c-0.277,0.267 -0.698,0.339 -1.072,0.428c-0.048,0.011 -0.562,-0.087 -4.778,0.111c-41.328,1.94 -76.979,18.715 -77.155,18.793c-4.611,2.032 -5.247,2.556 -6.677,2.369c-3.07,-0.402 -4.601,-4.554 -1.442,-6.77c2.221,-1.558 12.461,-7.009 23.549,-18.372c4.236,-4.341 7.598,-8.574 9.076,-11.447Z"/><path d="M149.819,19.996c-1.52,-0.349 -4.77,-0.86 -10.833,-2.695c-8.689,-2.63 -15.646,-7.04 -18.403,-9.999c-0.051,-0.055 -0.145,-0.092 -0.15,-0.166c-0.079,-1.066 0.059,-1.065 -0.021,-2.135c1.15,-0.015 1.234,-0.619 2.204,0.002c2.642,1.692 6.957,3.431 18.862,5.862c8.217,1.678 10.611,1.344 13.069,2.722c3.869,2.169 6.958,8.957 -5.873,17.966c-0.164,0.115 -5.812,4.106 -12.375,6.09c-7.757,2.345 -12.504,1.499 -13.889,1.51c-0.624,0.005 -1.009,-0.376 -1.075,-0.442c-0.011,-0.011 -0.454,-1.073 -0.451,-1.08c0.145,-0.356 0.171,-0.793 0.442,-1.066c0.637,-0.643 0.774,-0.347 1.669,-0.49c1.357,-0.216 5.968,-0.918 14.144,-5.449c6.906,-3.827 11.429,-8.309 12.681,-10.63Zm0.327,-0.823c-0.008,-0.001 -0.008,-0.001 0,0Z"/></g></svg>