<?xml version="1.0" encoding="UTF-8" standalone="no"?><!DOCTYPE svg PUBLIC "-//W3C//DTD SVG 1.1//EN" "http://www.w3.org/Graphics/SVG/1.1/DTD/svg11.dtd"><svg width="100%" height="100%" viewBox="0 0 10 10" version="1.1" xmlns="http://www.w3.org/2000/svg" xmlns:xlink="http://www.w3.org/1999/xlink" xml:space="preserve" xmlns:serif="http://www.serif.com/" style="fill-rule:evenodd;clip-rule:evenodd;stroke-linejoin:round;stroke-miterlimit:2;"><rect id="Artboard6" x="0.229" y="0" width="9.103" height="9.103" style="fill:none;"/><clipPath id="_clip1"><rect x="0.229" y="0" width="9.103" height="9.103"/></clipPath><g clip-path="url(#_clip1)"><g><circle cx="4.781" cy="4.552" r="4.552" style="fill:#fff;"/><path d="M5.704,2.025c-0.065,0.116 -0.122,0.235 -0.172,0.358c-0.494,-0.078 -0.997,-0.078 -1.49,-0c-0.05,-0.123 -0.108,-0.242 -0.172,-0.358c-0.465,0.079 -0.917,0.222 -1.344,0.423c-0.763,1.101 -1.109,2.439 -0.976,3.771c0.497,0.374 1.055,0.659 1.65,0.843c0.135,-0.179 0.256,-0.368 0.361,-0.566c-0.194,-0.071 -0.38,-0.162 -0.556,-0.27c0.048,-0.032 0.094,-0.068 0.137,-0.107c1.04,0.501 2.253,0.501 3.293,0c0.046,0.039 0.091,0.075 0.137,0.107c-0.177,0.107 -0.363,0.199 -0.556,0.273c0.101,0.203 0.218,0.396 0.351,0.579c0.594,-0.183 1.151,-0.468 1.647,-0.843c0.136,-1.333 -0.21,-2.672 -0.976,-3.771c-0.422,-0.205 -0.87,-0.353 -1.331,-0.439Zm-1.998,3.433c-0.336,-0.024 -0.597,-0.314 -0.586,-0.651c-0.013,-0.338 0.249,-0.628 0.586,-0.651c0.337,0.023 0.599,0.313 0.586,0.651c0.013,0.338 -0.249,0.628 -0.586,0.651Zm2.161,0c-0.336,-0.024 -0.597,-0.314 -0.586,-0.651c-0.013,-0.338 0.249,-0.628 0.586,-0.651c0.338,0.021 0.6,0.313 0.586,0.651c0.015,0.338 -0.248,0.63 -0.586,0.651Z" style="fill:#1a1a1d;fill-rule:nonzero;"/></g></g></svg>