<?xml version="1.0" encoding="UTF-8" standalone="no"?><!DOCTYPE svg PUBLIC "-//W3C//DTD SVG 1.1//EN" "http://www.w3.org/Graphics/SVG/1.1/DTD/svg11.dtd"><svg width="100%" height="100%" viewBox="0 0 10 10" version="1.1" xmlns="http://www.w3.org/2000/svg" xmlns:xlink="http://www.w3.org/1999/xlink" xml:space="preserve" xmlns:serif="http://www.serif.com/" style="fill-rule:evenodd;clip-rule:evenodd;stroke-linejoin:round;stroke-miterlimit:2;"><rect id="Artboard6" x="0.104" y="0" width="9.103" height="9.103" style="fill:none;"/><clipPath id="_clip1"><rect x="0.104" y="0" width="9.103" height="9.103"/></clipPath><g clip-path="url(#_clip1)"><g><circle cx="4.656" cy="4.552" r="4.552" style="fill:#fff;"/><path d="M4.767,2.029c0.276,-0.004 0.55,-0.002 0.823,-0.004c0.009,0.342 0.148,0.65 0.369,0.879l-0,-0c0.238,0.214 0.547,0.353 0.888,0.377l0.005,0l0,0.849c-0.322,-0.008 -0.625,-0.082 -0.898,-0.21l0.014,0.006c-0.132,-0.064 -0.244,-0.129 -0.35,-0.202l0.009,0.006c-0.002,0.615 0.002,1.23 -0.004,1.843c-0.017,0.312 -0.121,0.597 -0.288,0.835l0.003,-0.005c-0.278,0.399 -0.729,0.66 -1.242,0.676l-0.002,0c-0.021,0.001 -0.045,0.002 -0.07,0.002c-0.292,0 -0.564,-0.081 -0.796,-0.222l0.007,0.004c-0.423,-0.254 -0.714,-0.689 -0.768,-1.196l-0.001,-0.007c-0.004,-0.105 -0.006,-0.211 -0.002,-0.314c0.083,-0.805 0.757,-1.428 1.578,-1.428c0.092,0 0.183,0.008 0.27,0.023l-0.009,-0.001c0.004,0.312 -0.008,0.623 -0.008,0.935c-0.071,-0.026 -0.154,-0.041 -0.239,-0.041c-0.315,0 -0.583,0.201 -0.682,0.482l-0.002,0.005c-0.022,0.072 -0.035,0.155 -0.035,0.24c0,0.035 0.002,0.069 0.006,0.103l-0,-0.004c0.056,0.345 0.352,0.605 0.708,0.605c0.01,0 0.02,-0 0.031,-0.001l-0.002,0c0.247,-0.007 0.461,-0.14 0.582,-0.336l0.002,-0.003c0.045,-0.063 0.076,-0.139 0.086,-0.221l0,-0.002c0.021,-0.377 0.013,-0.752 0.015,-1.129c0.002,-0.849 -0.002,-1.695 0.004,-2.542l0.001,0.001Z" style="fill:#1a1a1d;fill-rule:nonzero;"/></g></g></svg>