<?xml version="1.0" encoding="UTF-8" standalone="no"?><!DOCTYPE svg PUBLIC "-//W3C//DTD SVG 1.1//EN" "http://www.w3.org/Graphics/SVG/1.1/DTD/svg11.dtd"><svg width="100%" height="100%" viewBox="0 0 49 49" version="1.1" xmlns="http://www.w3.org/2000/svg" xmlns:xlink="http://www.w3.org/1999/xlink" xml:space="preserve" xmlns:serif="http://www.serif.com/" style="fill-rule:evenodd;clip-rule:evenodd;stroke-linejoin:round;stroke-miterlimit:2;"><rect id="Artboard2" x="-0" y="0.217" width="48.075" height="48.075" style="fill:none;"/><g><path d="M24.037,2.951c0.835,0.008 8.306,-0.206 14.694,5.886c9.17,8.745 8.729,23.498 -0.953,31.685c-9.111,7.704 -22.809,6.42 -30.335,-2.921c-7.388,-9.169 -5.931,-22.641 3.345,-30.023c5.898,-4.694 12.09,-4.616 13.249,-4.627Zm0.001,1.804l0,0.002c-0.744,0.007 -7.661,-0.201 -13.536,5.466c-8.416,8.119 -7.847,21.753 1.223,29.152c8.465,6.904 20.984,5.505 27.723,-3.177c6.606,-8.51 5.056,-20.817 -3.563,-27.425c-5.304,-4.067 -10.757,-4.002 -11.848,-4.018Z" style="fill:#2f2f2f;"/><g><path d="M15.178,17.622l22.103,0c0.313,-0 0.603,0.162 0.768,0.428c0.165,0.266 0.18,0.598 0.04,0.878l-5.526,11.057c-0.153,0.306 -0.466,0.499 -0.808,0.499l-13.98,0c-0.419,0 -0.783,-0.288 -0.879,-0.696l-2.597,-11.057c-0.063,-0.268 0,-0.551 0.171,-0.767c0.171,-0.216 0.432,-0.342 0.708,-0.342Zm1.14,1.806l2.173,9.251l12.706,0l4.623,-9.251l-19.503,0Z" style="fill:#2f2f2f;"/><path d="M31.68,31.645c1.26,0 2.283,1.023 2.283,2.283c0,1.26 -1.023,2.283 -2.283,2.283c-1.26,0 -2.283,-1.023 -2.283,-2.283c0,-1.26 1.023,-2.283 2.283,-2.283Zm0,1.806c-0.263,0 -0.477,0.214 -0.477,0.477c0,0.263 0.214,0.477 0.477,0.477c0.263,0 0.477,-0.214 0.477,-0.477c0,-0.263 -0.214,-0.477 -0.477,-0.477Z" style="fill:#2f2f2f;"/><path d="M17.786,31.645c1.26,0 2.283,1.023 2.283,2.283c0,1.26 -1.023,2.283 -2.283,2.283c-1.26,0 -2.283,-1.023 -2.283,-2.283c0,-1.26 1.023,-2.283 2.283,-2.283Zm0,1.806c-0.263,0 -0.477,0.214 -0.477,0.477c0,0.263 0.214,0.477 0.477,0.477c0.263,0 0.477,-0.214 0.477,-0.477c0,-0.263 -0.214,-0.477 -0.477,-0.477Z" style="fill:#2f2f2f;"/><path d="M13.536,12.327c0.78,-0.184 1.05,0.568 1.084,0.663c0.186,0.519 0.247,1.074 0.374,1.61c0.349,1.48 0.421,1.472 0.393,1.642c-0.037,0.226 0.008,0.484 -0.112,0.679c-0.002,0.003 -0.56,0.405 -0.562,0.405c-0.691,-0.112 -0.848,-0.01 -1.083,-0.67c-0.09,-0.252 -0.05,-0.262 -0.766,-3.25c-0.086,-0.358 0.084,-0.631 0.113,-0.677c0.192,-0.308 0.207,-0.32 0.56,-0.403Z" style="fill:#2f2f2f;"/><path d="M9.897,13.2c-0,-0.792 0.794,-0.89 0.894,-0.903c0.483,-0.06 0.974,0.006 1.461,0.006c1.324,-0 1.333,-0.072 1.492,-0.006c0.212,0.088 0.473,0.103 0.635,0.265c0.003,0.003 0.266,0.638 0.265,0.64c-0.088,0.212 -0.103,0.473 -0.265,0.635c-0.162,0.162 -0.407,0.237 -0.635,0.265c-0.234,0.029 -0.235,-0.011 -2.951,-0c-0.368,0.002 -0.595,-0.226 -0.633,-0.265c-0.256,-0.257 -0.263,-0.275 -0.263,-0.638Z" style="fill:#2f2f2f;"/></g></g></svg>