<?xml version="1.0" encoding="UTF-8" standalone="no"?><!DOCTYPE svg PUBLIC "-//W3C//DTD SVG 1.1//EN" "http://www.w3.org/Graphics/SVG/1.1/DTD/svg11.dtd"><svg width="100%" height="100%" viewBox="0 0 49 49" version="1.1" xmlns="http://www.w3.org/2000/svg" xmlns:xlink="http://www.w3.org/1999/xlink" xml:space="preserve" xmlns:serif="http://www.serif.com/" style="fill-rule:evenodd;clip-rule:evenodd;stroke-linejoin:round;stroke-miterlimit:2;"><rect id="Artboard2" x="-0" y="-0" width="48.075" height="48.075" style="fill:none;"/><g><path d="M24.037,2.734c0.835,0.008 8.306,-0.206 14.694,5.886c9.17,8.745 8.729,23.498 -0.953,31.685c-9.111,7.704 -22.809,6.42 -30.335,-2.921c-7.388,-9.169 -5.931,-22.641 3.345,-30.023c5.898,-4.694 12.09,-4.616 13.249,-4.627Zm0.001,1.804l0,0.002c-0.744,0.007 -7.661,-0.201 -13.536,5.466c-8.416,8.119 -7.847,21.753 1.223,29.152c8.465,6.904 20.984,5.505 27.723,-3.177c6.606,-8.51 5.056,-20.817 -3.563,-27.425c-5.304,-4.067 -10.757,-4.002 -11.848,-4.018Z" style="fill:#2f2f2f;"/><path d="M24.037,8.527c3.421,0 6.198,2.777 6.198,6.198c0,3.421 -2.777,6.198 -6.198,6.198c-3.421,0 -6.198,-2.777 -6.198,-6.198c0,-3.421 2.777,-6.198 6.198,-6.198Zm0,1.806c-2.424,0 -4.393,1.968 -4.393,4.393c0,2.424 1.968,4.393 4.393,4.393c2.424,0 4.393,-1.968 4.393,-4.393c0,-2.424 -1.968,-4.393 -4.393,-4.393Z" style="fill:#2f2f2f;"/><path d="M37.485,33.007c-3.132,3.982 -7.994,6.541 -13.448,6.541c-5.454,0 -10.316,-2.559 -13.448,-6.541c-0.187,-0.238 -0.242,-0.553 -0.148,-0.84c1.877,-5.714 7.258,-9.845 13.596,-9.845c6.338,0 11.72,4.131 13.596,9.845c0.094,0.287 0.039,0.602 -0.148,0.84Zm-1.729,-0.736c-1.771,-4.753 -6.352,-8.143 -11.72,-8.143c-5.367,0 -9.949,3.39 -11.72,8.143c2.807,3.344 7.017,5.471 11.72,5.471c4.703,0 8.913,-2.128 11.72,-5.471Z" style="fill:#2f2f2f;"/></g></svg>