<?xml version="1.0" encoding="UTF-8" standalone="no"?><!DOCTYPE svg PUBLIC "-//W3C//DTD SVG 1.1//EN" "http://www.w3.org/Graphics/SVG/1.1/DTD/svg11.dtd"><svg width="100%" height="100%" viewBox="0 0 10 10" version="1.1" xmlns="http://www.w3.org/2000/svg" xmlns:xlink="http://www.w3.org/1999/xlink" xml:space="preserve" xmlns:serif="http://www.serif.com/" style="fill-rule:evenodd;clip-rule:evenodd;stroke-linejoin:round;stroke-miterlimit:2;"><rect id="Artboard6" x="0.13" y="0" width="9.103" height="9.103" style="fill:none;"/><clipPath id="_clip1"><rect x="0.13" y="0" width="9.103" height="9.103"/></clipPath><g clip-path="url(#_clip1)"><g><circle cx="4.682" cy="4.552" r="4.552" style="fill:#fff;"/><path d="M7.232,3.265c-0.03,-0.113 -0.09,-0.215 -0.172,-0.296c-0.082,-0.081 -0.184,-0.137 -0.295,-0.162c-0.42,-0.107 -2.084,-0.107 -2.084,-0.107c0,0 -1.664,0 -2.084,0.107c-0.112,0.025 -0.213,0.082 -0.295,0.162c-0.082,0.081 -0.141,0.183 -0.172,0.296c-0.107,0.421 -0.107,1.286 -0.107,1.286c0,0 0,0.866 0.107,1.286c0.03,0.113 0.09,0.215 0.172,0.296c0.082,0.081 0.184,0.137 0.295,0.162c0.42,0.107 2.084,0.107 2.084,0.107c0,0 1.664,0 2.084,-0.107c0.112,-0.025 0.213,-0.082 0.295,-0.162c0.082,-0.081 0.141,-0.183 0.172,-0.296c0.107,-0.421 0.107,-1.286 0.107,-1.286c0,0 0,-0.866 -0.107,-1.286Zm-3.08,2.101l0,-1.629l1.418,0.814l-1.418,0.814Z" style="fill:#1a1a1d;fill-rule:nonzero;"/></g></g></svg>