<?xml version="1.0" encoding="UTF-8" standalone="no"?><!DOCTYPE svg PUBLIC "-//W3C//DTD SVG 1.1//EN" "http://www.w3.org/Graphics/SVG/1.1/DTD/svg11.dtd"><svg width="100%" height="100%" viewBox="0 0 84 70" version="1.1" xmlns="http://www.w3.org/2000/svg" xmlns:xlink="http://www.w3.org/1999/xlink" xml:space="preserve" xmlns:serif="http://www.serif.com/" style="fill-rule:evenodd;clip-rule:evenodd;stroke-linejoin:round;stroke-miterlimit:2;"><rect id="Artboard13" x="0" y="0" width="83.219" height="69.106" style="fill:none;"/><g><path d="M12.205,54.704c-0.254,-0.223 -2.753,-2.144 -3.927,-7.057c-0.318,-1.333 -1.718,-7.198 2.042,-17.546c1.012,-2.785 1.782,-4.283 2.988,-6.689c1.399,-2.79 2.511,-4.917 3.209,-6.233c-0.41,-0.603 -0.757,-1.407 -0.848,-2.452c-0.347,-3.992 3.351,-7.895 7.17,-7.703c1.799,-1.927 3.239,-2.667 3.937,-3.005c0.129,-0.189 0.294,-0.404 0.507,-0.641c1.717,-1.912 4.387,-2.36 6.361,-2.596c1.827,-0.218 3.367,0.565 4.398,1.793c11.56,0.627 11.596,0.679 12.859,0.675c1.36,-0.004 1.664,-0.158 1.682,-0.167l0.001,-0c0.353,-0.204 1.278,-0.98 3.621,-0.856c1.595,0.084 4.91,0.721 10.414,5.286c1.455,1.207 2.109,2.133 2.358,2.964c0.654,0.25 1.298,0.202 2.252,0.263c0.268,0.017 2.334,0.041 3.101,1.899c0.334,0.81 0.39,2.428 0.316,3.42c-0.081,1.079 -0.311,1.975 -0.554,2.661c0.619,0.872 1.166,2.112 0.671,3.443c-0.34,0.916 -0.803,0.916 -1.295,2.439c-1.956,6.055 1.552,19.374 1.942,23.915c0.024,0.276 0.105,0.79 -0.071,2.848c-1.315,15.353 -10.87,17.196 -14.901,16.984c-1.42,-0.075 -2.295,-0.793 -2.639,-1.048c-1.181,-0.876 -6.298,-4.666 -13.903,-17.668c-1.106,-1.891 -1.954,-3.452 -2.462,-4.411l-10.75,-2.275c-1.696,4.393 -4.368,8.607 -6.201,10.47c-1.68,1.707 -3.71,2.805 -5.792,3.128c-3.766,0.584 -6.144,-1.564 -6.484,-1.84Zm2.867,-3.384c0.033,0.025 0.066,0.051 0.1,0.078c2.203,1.761 5.058,0.426 6.848,-1.9c2.885,-3.747 4.493,-7.897 5.031,-9.56c0.055,-0.171 0.052,-0.171 0.653,-2.154c9.439,2.541 12.835,-3.872 17.345,4.8c1.265,2.433 4.975,9.214 9.304,14.816c3.32,4.297 5.476,5.918 6.335,6.532c1.774,0.047 9.643,-0.05 10.34,-14.265c0.047,-0.964 -0.227,-2.527 -0.813,-5.791c-0.801,-4.464 -1.924,-10.649 -1.718,-15.735c0.156,-3.86 1.038,-5.927 1.792,-7.119c-0.235,-0.259 -0.272,-0.265 -1.587,-1.445c0.882,-1.567 0.911,-1.552 1.12,-2.044c0.371,-0.876 0.453,-1.752 0.442,-2.421c-1.166,-0.052 -2.937,-0.21 -4.61,-1.476c-0.46,-0.348 -0.722,-0.784 -0.853,-1.171c-0.091,-0.269 -0.121,-0.524 -0.126,-0.729c-0.717,-0.82 -2.974,-2.543 -4.62,-3.529c-2.747,-1.645 -4.129,-1.635 -4.777,-1.554c-0.032,0.004 -0.064,0.01 -0.095,0.016c-0.609,0.359 -1.294,0.894 -3.587,0.982c-1.652,0.064 -1.651,-0.015 -16.215,-0.794l-0.556,-1.193c-0.35,-0.59 -0.574,-0.504 -0.765,-0.48c-2.35,0.293 -3.163,0.697 -3.636,1.334c-0.004,-0.002 -0.007,-0.004 -0.011,-0.006c-0.281,0.335 -0.55,0.679 -0.832,1.013c-0.076,0.09 -1.131,0.597 -1.357,0.725c-0.375,0.213 -1.094,0.655 -2.233,1.883c-0.736,0.793 -0.701,0.821 -1.623,1.976c-1.503,-0.608 -1.493,-0.653 -1.742,-0.665c-1.09,-0.049 -2.587,1.46 -2.552,2.81c0,0.015 0.004,0.423 0.195,0.524c0.667,0.351 1.333,0.701 2,1.052c-0.057,0.106 -3.001,5.44 -6.265,12.115c-0.326,0.667 -5.47,11.51 -3.265,19.228c0.781,2.733 1.913,3.782 2.334,4.144l-0.002,0.002Zm51.007,-39.928l0.09,-0.001c-0.016,-0 -0.046,-0.002 -0.09,0.001Zm-51.005,39.925c0.001,-0.002 0.006,0.006 0.005,0.004c-0.002,-0.001 -0.003,-0.003 -0.005,-0.004Z" style="fill:#fff;"/><g><path d="M28.388,5.664c-0.035,0.024 -0.071,0.047 -0.108,0.069l0.094,-0.031c0.005,-0.013 0.009,-0.025 0.014,-0.038Z" style="fill:#f57b10;"/><path d="M28.19,5.596l-0.019,-0.04l0.099,-0.065l0,-0l0.001,0.001l0.021,0.017l0.015,-0.005l-0.01,0.009l0.285,0.223l-0.094,0.076l0.016,0.023l-0.117,0.074l-0.005,-0.011l-0.038,0.031l-0.148,-0.319l-0.019,0.018l0.012,-0.033Zm0.043,-0.02l-0.022,0.022l0.039,0.015l-0.017,-0.036Z" style="fill:#1a1a1d;"/><path d="M28.388,5.664c-0.035,0.024 -0.071,0.047 -0.108,0.069l0.094,-0.031c0.005,-0.013 0.009,-0.025 0.014,-0.038Zm0,0c-0.035,0.024 -0.071,0.047 -0.108,0.069l0.094,-0.031c0.005,-0.013 0.009,-0.025 0.014,-0.038Zm-0.108,0.069l0.094,-0.031c0.005,-0.013 0.009,-0.025 0.014,-0.038c-0.035,0.024 -0.071,0.047 -0.108,0.069" style="fill:#f57b10;"/><path d="M28.415,5.893c-0.02,0.02 -0.043,0.035 -0.07,0.038c-0.098,0.012 -0.255,-0.035 -0.264,-0.133c-0.004,-0.046 0.028,-0.082 0.07,-0.115c0.01,-0.035 0.02,-0.069 0.031,-0.103l-0.011,-0.024l0.026,-0.017c0.003,-0.007 0.011,-0.009 0.019,-0.012l0.054,-0.035l0,-0l0.001,0.001l0.001,-0.001l0.022,0.017l0.014,-0.005l-0.009,0.009l0,0l-0.001,0.001l0.009,0.007c0,-0 0,-0.001 0,-0.001l0.191,0.151l0.085,0.066l-0.094,0.076l0.016,0.023l-0.035,0.022l-0.023,0.016c-0.01,0.006 -0.018,0.02 -0.029,0.019c-0.001,-0 -0.001,-0 -0.002,-0Zm-0.107,-0.373l-0.009,-0.007l0.009,-0.008c0,0.005 0,0.01 0,0.015Zm-0.075,0.057l-0.022,0.021l0.037,0.014c0,-0 0.001,-0.001 0.001,-0.001l-0.016,-0.034Z" style="fill:#1a1a1d;"/><path d="M71.558,19.004c-0.022,0.04 -0.043,0.078 -0.064,0.116c-0.022,-0.019 -0.034,-0.029 -0.034,-0.029l0.034,-0.088l0.064,0.002Z" style="fill:#f57b10;"/><path d="M71.905,18.805l-0.356,0.638l-0.335,-0.293l0.138,-0.362l0.553,0.017Zm-0.3,0.162l-0.087,0.015l0.04,0.022l-0.005,0.162l0.087,-0.058l-0.035,-0.141Z" style="fill:#1a1a1d;"/><path d="M53.526,59.92c-5.684,-6.989 -10.43,-16.285 -10.609,-16.639l-0.005,-0.01l-13.675,-2.896c0,0 -1.599,5.46 -5.46,10.479c-2.724,3.542 -7.014,4.804 -10.137,2.158c-1.302,-1.103 -2.401,-2.886 -3.099,-5.467c-2.371,-8.769 3.474,-20.571 3.474,-20.571c0,0 7.17,-14.725 9.927,-17.869c2.354,-2.683 3.583,-2.915 4.338,-3.372l0.094,-0.031c0.396,-0.13 0.819,-0.261 1.266,-0.387c2.593,-0.732 2.584,0.354 3.129,3.104c0.049,0.249 0.103,0.512 0.164,0.788c0.732,3.326 2.062,3.16 2.062,3.16c0,0 6.087,0.931 7.917,0.832c0.664,-0.036 1.548,-0.406 2.484,-0.941c1.641,-0.94 3.442,-2.39 4.502,-3.449c2.844,-2.844 5.189,-1.896 6.786,-1.131c3.17,1.519 6.191,3.74 8.636,5.813c0.931,0.789 1.778,1.557 2.518,2.256c0.235,0.222 0.459,0.437 0.672,0.644c1.571,1.528 2.51,2.596 2.51,2.596l0.476,0.016l-0.034,0.088c0,0 0.012,0.01 0.034,0.029c0.249,0.221 1.779,1.639 1.065,2.511c-4.677,5.716 0.854,24.087 0.682,27.965c-0.688,15.487 -9.517,16.606 -12.412,16.554c-0.132,-0.002 -0.251,-0.007 -0.357,-0.013c-0.345,-0.038 -0.667,-0.15 -0.95,-0.319c-0.019,-0.014 -0.039,-0.027 -0.058,-0.041c-0.086,-0.061 -0.173,-0.122 -0.259,-0.186c-1.909,-1.397 -3.843,-3.413 -5.678,-5.67Z" style="fill:#fff;"/><path d="M29.378,40.618c-1.235,3.858 -3.555,8.011 -5.568,10.53c-4.052,5.071 -11.171,5.217 -13.499,-3.653c-1.487,-5.665 0.376,-12.525 1.895,-16.708c0.974,-2.681 1.715,-4.118 2.785,-6.256c1.941,-3.878 6.474,-12.762 8.657,-15.402c0.77,-0.932 1.572,-1.643 1.72,-1.774c1.356,-1.203 2.204,-1.452 2.77,-1.78c0.081,-0.047 0.129,-0.075 1.111,-0.364c1.723,-0.507 2.745,-0.598 3.247,0.981c0.46,1.446 0.62,4.575 1.878,5.686c0.288,0.254 0.523,0.285 0.599,0.282c0.072,-0.003 5.186,0.79 7.439,0.836c0.401,0.008 1.25,0.142 3.569,-1.338c0.06,-0.039 2.018,-1.264 3.768,-2.998c3.109,-3.079 5.58,-1.929 7.767,-0.8c6.91,3.568 12.939,10.186 13.597,10.921l0.678,0.023l-0.088,0.229c1.982,1.853 1.021,2.721 0.963,2.794c-4.494,5.679 0.943,23.872 0.781,27.778c-0.301,7.238 -2.563,12.899 -7.123,15.397c-0.037,0.021 -2.482,1.503 -5.782,1.347c-0.818,-0.039 -1.382,-0.53 -1.553,-0.656c-2.661,-1.973 -4.979,-4.856 -5.626,-5.64c-0.522,-0.649 -2.364,-2.896 -4.956,-6.903c-2.088,-3.227 -4.143,-6.803 -5.636,-9.694l-13.393,-2.836Zm24.31,19.17c0.952,1.153 3.209,3.918 5.895,5.817c0.433,0.306 0.976,0.326 1.065,0.33c1.644,0.062 5.388,-0.241 8.334,-3.624c0.842,-0.967 3.702,-4.383 4.051,-12.724c0.163,-3.889 -5.346,-22.133 -0.691,-28.017c0.075,-0.095 0.507,-0.453 -0.216,-1.452c-0.182,-0.252 -0.393,-0.473 -0.41,-0.492c-0.237,-0.251 -0.242,-0.244 -0.501,-0.474l0,-0c-0.133,-0.019 -0.268,-0.032 -0.394,-0.075c-0.001,-0 -6.712,-7.612 -14.227,-11.212c-1.823,-0.873 -3.901,-1.532 -6.55,1.091c-1.668,1.652 -5.212,4.394 -7.213,4.455c-1.873,0.057 -6.946,-0.701 -7.847,-0.835c-0.2,0.005 -1.237,-0.06 -1.968,-2.271c-0.633,-1.915 -0.646,-4.319 -1.432,-4.835c-0.49,-0.322 -1.262,-0.186 -3.145,0.431c-0.155,0.051 -0.143,0.073 -0.458,0.228c-0.704,0.347 -1.902,0.854 -3.882,3.115c-2.669,3.047 -9.693,17.35 -10.201,18.476c-1.526,3.382 -5.083,12.648 -3.155,19.772c2.328,8.603 9.113,8.117 12.87,3.236c2.419,-3.143 4.417,-7.139 5.481,-10.595c7.77,1.776 10.499,-3.691 14.177,3.38c0.894,1.719 2.965,5.527 5.6,9.582c2.523,3.884 4.314,6.067 4.819,6.695Z" style="fill:#1a1a1d;"/><path d="M28.374,5.702c0.396,-0.13 0.819,-0.261 1.266,-0.387c2.593,-0.732 2.584,0.354 3.129,3.104c0.049,0.249 0.103,0.512 0.164,0.788c0.732,3.326 2.062,3.16 2.062,3.16c0,0 6.087,0.931 7.917,0.832c0.664,-0.036 1.548,-0.406 2.484,-0.941c1.641,-0.94 3.442,-2.39 4.502,-3.449c2.844,-2.844 5.189,-1.896 6.786,-1.131c7.593,3.638 14.336,11.309 14.336,11.309l0.476,0.016l0.263,-0.687c0,0 -14.359,-14.99 -20.406,-11.692c-0.607,0.331 -15.994,-1.158 -15.994,-1.158c0,0 -4.406,-2.322 -6.728,0c-0.075,0.075 -0.155,0.139 -0.242,0.199c-0.005,0.013 -0.01,0.026 -0.014,0.038Z" style="fill:#f57b10;"/><path d="M28.438,5.898l0.001,0.002l-0.261,-0.272c0.043,-0.051 0.078,-0.107 0.121,-0.158c0.016,-0.02 0.029,-0.005 0.241,-0.211c1.853,-1.794 5.078,-0.89 6.876,0c1.965,0.187 14.545,1.388 15.845,1.174c1.04,-0.543 4.496,-2.128 14.281,5.898c3.402,2.791 5.967,5.429 6.456,5.932l-0.363,0.948c-0.255,-0.076 -0.536,-0.036 -0.791,-0.112c-0.001,-0 -6.662,-7.567 -14.163,-11.195c-1.833,-0.887 -3.938,-1.625 -6.638,1.049c-1.668,1.652 -5.212,4.394 -7.213,4.455c-1.881,0.057 -6.986,-0.707 -7.858,-0.836c-0.86,-0.019 -1.563,-1.025 -1.979,-2.333c-0.651,-2.048 -0.62,-4.332 -1.47,-4.809c-0.6,-0.337 -1.722,0.036 -3.085,0.466Zm0.855,-0.702c1.769,-0.521 2.745,-0.545 3.23,1.076c0.438,1.462 0.613,4.479 1.835,5.589c0.332,0.301 0.589,0.3 0.616,0.297c0.062,-0.005 5.184,0.79 7.439,0.836c0.401,0.008 1.25,0.142 3.568,-1.338c0.06,-0.038 2.018,-1.264 3.768,-2.997c2.905,-2.877 5.248,-2.029 7.112,-1.127c7.181,3.474 13.573,10.49 14.253,11.249l0.239,0.008l0.163,-0.425c-3.801,-3.881 -14.977,-14.227 -20.031,-11.577c-0.14,0.073 -0.156,0.268 -7.639,-0.351c-4.079,-0.337 -8.543,-0.768 -8.548,-0.769c-0.078,-0.017 -0.054,-0.074 -0.916,-0.405c-1.144,-0.439 -3.461,-1.113 -5.089,-0.067Z" style="fill:#1a1a1d;"/><path d="M41.981,15.419c0.002,0.001 0.004,0.002 0.006,0.003c0.64,0.341 0.799,1.294 0.355,2.128c-0.444,0.834 -1.324,1.234 -1.964,0.893c-0.203,-0.108 -0.358,-0.278 -0.46,-0.487c-0.22,-0.448 -0.198,-1.072 0.105,-1.641c0.442,-0.831 1.318,-1.231 1.957,-0.897Z" style="fill:#fff;"/><path d="M42.079,15.234c0.001,0.001 0.629,0.277 0.715,1.157c0.144,1.477 -1.383,2.884 -2.557,2.21c-1.076,-0.617 -0.807,-2.599 0.494,-3.305c0.768,-0.417 1.344,-0.064 1.348,-0.062Zm-0.195,0.37c-1.102,-0.508 -2.302,1.189 -1.778,2.261c0.495,1.014 2.019,0.344 2.254,-0.988c0.048,-0.273 0.029,-0.535 -0.046,-0.751c-0.131,-0.377 -0.387,-0.5 -0.427,-0.522l-0.002,-0.001Z" style="fill:#1a1a1d;"/><path d="M39.919,17.957c-0.22,-0.448 -0.198,-1.072 0.105,-1.641c0.442,-0.831 1.318,-1.231 1.957,-0.897c0.22,0.448 0.198,1.072 -0.105,1.641c-0.442,0.831 -1.318,1.231 -1.957,0.897Z" style="fill:#fff;"/><path d="M39.76,18.11c-0.015,-0.031 -0.466,-0.784 0.05,-1.834c0.458,-0.933 1.473,-1.432 2.231,-1.059c0.032,0.016 0.071,0.023 0.096,0.049c0.038,0.037 0.105,0.243 0.112,0.265c0.458,1.408 -0.956,3.114 -2.242,2.69c-0.129,-0.043 -0.126,-0.05 -0.247,-0.111Zm0.321,-0.307c0.131,0.054 0.446,0.138 0.861,-0.075c0.627,-0.322 1.22,-1.266 0.878,-2.156c-0.132,-0.054 -0.448,-0.138 -0.862,0.075c-0.626,0.322 -1.219,1.266 -0.877,2.156Z" style="fill:#1a1a1d;"/><path d="M33.715,14.35c0.135,0.013 0.265,0.051 0.387,0.116c0.64,0.341 0.799,1.294 0.355,2.128c-0.444,0.834 -1.324,1.234 -1.964,0.893c-0.122,-0.065 -0.227,-0.152 -0.313,-0.257c-0.365,-0.443 -0.401,-1.196 -0.042,-1.871c0.359,-0.675 1.005,-1.066 1.577,-1.009Z" style="fill:#fff;"/><path d="M33.736,14.142c1.647,0.221 1.488,2.676 0.011,3.472c-1.268,0.683 -2.464,-0.453 -1.945,-2.002c0.191,-0.57 0.84,-1.538 1.934,-1.47Zm-0.04,0.415l-0,0.001c-1.308,-0.066 -2.103,1.925 -1.24,2.655c0.751,0.635 2.11,-0.415 2.042,-1.672c-0.014,-0.254 -0.09,-0.479 -0.214,-0.647c-0.228,-0.308 -0.544,-0.33 -0.588,-0.337Z" style="fill:#1a1a1d;"/><path d="M31.637,4.437c-1.071,-0.041 -2.173,0.194 -3.007,1.028c-0.075,0.075 -0.155,0.139 -0.242,0.199c0.054,-0.139 0.134,-0.286 0.245,-0.443c0.961,-1.352 2.607,-1.842 4.317,-2.112c0.317,-0.05 0.636,-0.093 0.954,-0.132c0.632,-0.078 1.154,0.062 1.573,0.292c0.641,0.351 1.04,0.912 1.225,1.224l-0.598,1.042c-0.473,-0.045 -0.745,-0.071 -0.745,-0.071c0,0 -0.484,-0.255 -1.216,-0.512c-0.683,-0.24 -1.583,-0.48 -2.506,-0.516Z" style="fill:#1a1a1d;"/><path d="M31.628,4.646c-0.505,-0.013 -1.287,-0.005 -2.096,0.411c-0.517,0.266 -0.656,0.508 -1.025,0.778l-0.313,-0.248c0.157,-0.366 0.749,-1.505 2.675,-2.192c1.329,-0.474 3.138,-0.646 3.378,-0.646c1.772,-0.002 2.612,1.607 2.695,1.743l-0.726,1.264c-0.305,-0.037 -0.613,-0.051 -0.919,-0.088c-0.019,-0.002 -0.958,-0.527 -2.364,-0.846c-0.592,-0.134 -1.196,-0.17 -1.305,-0.176l-0.001,-0Zm0.016,-0.417c0.337,0.02 1.797,0.07 3.771,1.033l0.574,0.055l0.469,-0.816c-1.081,-1.643 -2.393,-1.339 -3.004,-1.255c-1.113,0.152 -2.294,0.381 -3.255,0.896c-0.253,0.135 -0.495,0.296 -0.715,0.474c0.928,-0.434 1.875,-0.394 2.159,-0.386Z" style="fill:#1a1a1d;"/><path d="M36.702,4.494c0.082,0.139 0.122,0.229 0.122,0.229c0,0 4.6,0.241 12.181,0.677c1.003,0.058 1.781,0.07 2.393,0.052l-0.7,1.22c-2.585,-0.013 -11.886,-0.878 -14.595,-1.135l0.598,-1.042Z" style="fill:#1a1a1d;"/><path d="M36.956,4.521l12.061,0.671c1.465,0.084 2.145,0.056 2.376,0.052l0.186,0.311l-0.761,1.325c-2.746,-0.044 -8.271,-0.532 -15.057,-1.166l0.938,-1.634c0.144,0.245 0.174,0.282 0.257,0.441Zm-0.261,0.404l-0.249,0.434c6.086,0.568 11.456,1.037 14.133,1.103l0.457,-0.797c-0.31,0.003 -0.807,-0 -1.499,-0.031c-1.028,-0.046 -1.027,-0.075 -12.842,-0.71Z" style="fill:#1a1a1d;"/><path d="M52.954,6.165c-0.58,0.047 -1.118,0.193 -1.602,0.458c-0.064,0.035 -0.294,0.05 -0.653,0.048l0.7,-1.22c1.218,-0.037 1.782,-0.2 2.157,-0.386c0.603,-0.297 0.722,-0.653 2.285,-0.641c0.326,0.002 0.662,0.035 1.004,0.095c2.83,0.494 6.106,2.816 8.362,4.691c0.86,0.715 1.292,1.216 1.504,1.578c-0.124,0.755 -0.245,1.692 -0.342,2.507c-3.124,-2.655 -7.096,-5.588 -10.481,-6.692c-1.049,-0.342 -2.041,-0.509 -2.934,-0.437Z" style="fill:#1a1a1d;"/><path d="M52.97,6.372c-0.533,0.058 -0.943,0.132 -1.522,0.437c-0.185,0.097 -1.005,0.07 -1.109,0.07l0.937,-1.632c1.158,-0.046 1.772,-0.097 2.471,-0.529c0.264,-0.163 0.709,-0.546 2.223,-0.499c0.535,0.016 3.587,0.022 9.37,4.832c0.321,0.267 1.15,0.969 1.528,1.595c0.02,0.033 0.057,0.062 0.06,0.101c0,0.005 -0.085,0.487 -0.214,1.462c-0.032,0.244 -0.031,0.244 -0.139,1.112l-0.341,0.134c-1.056,-0.891 -4.512,-3.826 -7.983,-5.615c-3.138,-1.617 -4.731,-1.495 -5.281,-1.465l-0,-0.002Zm-0.033,-0.415c0.587,-0.032 2.236,-0.157 5.42,1.467c3.264,1.665 6.511,4.337 7.852,5.464c0.085,-0.69 0.13,-1.067 0.285,-2.062c-0.124,-0.213 -0.604,-0.903 -2.901,-2.629c-5.038,-3.787 -7.532,-3.622 -8.421,-3.541c-0.919,0.083 -1.027,0.372 -1.603,0.634c-0.661,0.3 -1.54,0.344 -2.047,0.365l-0.46,0.802c0.068,-0.004 0.127,-0.01 0.2,-0.022c0.647,-0.333 1.066,-0.414 1.675,-0.477Z" style="fill:#1a1a1d;"/><path d="M66.711,10.787c0.41,0.702 -0.005,0.882 0.277,1.093c2.251,1.688 4.707,0.538 5.262,1.516c0.047,0.084 0.081,0.183 0.099,0.301c0.268,1.723 0.056,3.105 -0.283,4.131c-0.154,0.466 -0.334,0.859 -0.507,1.176l-0.064,-0.002l0.263,-0.687c0,0 -2.272,-2.372 -5.389,-5.021c0.097,-0.815 0.218,-1.752 0.342,-2.507Z" style="fill:#1a1a1d;"/><path d="M71.516,18.365c-2.726,-2.786 -5.365,-4.977 -5.368,-4.984c-0.011,-0.038 0.18,-1.428 0.197,-1.552c0.089,-0.646 0.156,-1.05 0.16,-1.075l0.386,-0.072c0.307,0.559 0.21,0.699 0.2,1.011c0.029,0.025 0.479,0.394 1.19,0.656c1.993,0.732 3.965,-0.122 4.26,1.24c0.027,0.127 0.134,0.847 0.137,1.55c0.012,2.238 -0.718,3.549 -0.998,4.077l-0.484,-0.016l0.32,-0.835Zm-4.764,-6.428c-0.039,0.287 -0.085,0.64 -0.138,1.072c-0.008,0.066 -0.053,0.139 -0.024,0.199c0.012,0.024 2.438,2.025 5.184,4.827c0.325,-0.876 0.68,-2.361 0.37,-4.306c-0.118,-0.742 -1.071,-0.52 -2.472,-0.656c-0.898,-0.088 -1.87,-0.323 -2.809,-1.026c-0.031,-0.023 -0.073,-0.058 -0.11,-0.11Z" style="fill:#1a1a1d;"/><path d="M13.64,53.011c-0.303,-3.128 -0.18,-9.856 5.278,-15.181c1.546,-1.508 4.675,0.038 7.616,0.603c2.941,0.566 14.417,3.054 14.417,3.054c0,0 1.278,0.208 1.967,1.793c-0.004,-0.007 -0.005,-0.01 -0.005,-0.01l-13.675,-2.896c0,0 -1.599,5.46 -5.46,10.479c-2.724,3.542 -7.014,4.804 -10.137,2.158Z" style="fill:#1a1a1d;"/><path d="M13.64,53.011c-0.303,-3.128 -0.18,-9.856 5.278,-15.181c1.546,-1.508 4.675,0.038 7.616,0.603c2.941,0.566 14.417,3.054 14.417,3.054c0,0 1.278,0.208 1.967,1.793l-0.005,-0.01l-13.675,-2.896c0,0 -1.599,5.46 -5.46,10.479c-2.724,3.542 -7.014,4.804 -10.137,2.158Zm28.945,-9.937c-0.195,-0.362 -0.566,-0.901 -1.251,-1.235c-0.21,-0.102 -0.39,-0.141 -0.425,-0.149c-9.752,-2.102 -10.282,-2.218 -14.555,-3.08c-2.852,-0.576 -5.876,-2.015 -7.292,-0.63c-5.844,5.717 -5.391,12.89 -5.221,14.929c0.425,0.365 2.732,2.208 6.107,0.762c2.366,-1.013 3.727,-2.964 4.602,-4.236c0.066,-0.096 2.954,-4.143 4.542,-9.304l13.493,2.943Z" style="fill:#1a1a1d;"/><path d="M35.313,30.806c0.391,0.083 0.807,0.094 1.232,0.036c1.201,-0.165 2.471,-0.881 3.437,-2.058c1.394,-1.697 1.725,-3.828 0.944,-5.243c0.6,0.046 1.153,0.249 1.608,0.623c1.552,1.275 1.379,4.056 -0.387,6.206c-0.478,0.582 -1.025,1.059 -1.598,1.42c-1.544,0.97 -3.283,1.097 -4.415,0.167c-0.373,-0.306 -0.647,-0.7 -0.822,-1.151Z" style="fill:#f57b10;"/><path d="M35.355,30.601c2.051,0.387 3.979,-1.059 4.949,-2.624c0.038,-0.062 1.515,-2.3 0.439,-4.338l0.2,-0.306c0.01,0.001 1.756,0.034 2.533,1.732c1.205,2.636 -1.059,6.648 -4.276,7.561c-1.222,0.346 -2.146,0.109 -2.68,-0.168c-0.968,-0.502 -1.288,-1.297 -1.403,-1.576l0.237,-0.28Zm0.313,0.471c0.215,0.388 0.656,0.957 1.537,1.204c1.965,0.552 4.778,-1.089 5.836,-3.842c0.825,-2.145 0.141,-4.253 -1.762,-4.636c0.215,0.544 0.494,1.679 -0.043,3.197c-0.463,1.309 -1.405,2.487 -2.552,3.235c-1.302,0.849 -2.441,0.893 -3.017,0.842Z" style="fill:#1a1a1d;"/><path d="M19.913,16.982c0.347,0.074 0.716,0.083 1.093,0.032c1.066,-0.146 2.192,-0.782 3.049,-1.825c1.236,-1.505 1.53,-3.396 0.837,-4.651c0.532,0.041 1.023,0.221 1.427,0.553c1.377,1.131 1.223,3.598 -0.343,5.506c-0.424,0.517 -0.909,0.94 -1.417,1.259c-1.369,0.861 -2.912,0.973 -3.916,0.148c-0.331,-0.272 -0.574,-0.621 -0.729,-1.021Z" style="fill:#f57b10;"/><path d="M19.955,16.777c1.714,0.324 3.266,-0.81 4.101,-1.928c0.73,-0.978 1.443,-2.694 0.654,-4.213l0.2,-0.306c0.029,0.003 1.913,0.047 2.446,2.06c0.655,2.474 -1.582,5.825 -4.403,6.324c-0.813,0.144 -2.49,0.137 -3.235,-1.657l0.237,-0.28Zm0.317,0.463c1.212,2.075 4.557,1.098 6.1,-1.581c1.247,-2.166 0.721,-4.462 -1.136,-4.863c0.636,1.65 -0.139,3.385 -0.903,4.377c-0.793,1.03 -2.287,2.204 -4.061,2.067Z" style="fill:#1a1a1d;"/><path d="M41.334,23.028c1.375,-0.159 2.646,0.241 3.401,1.209c1.334,1.71 0.558,4.549 -1.732,6.335c-0.355,0.277 -0.726,0.513 -1.104,0.707c0.202,-0.197 0.397,-0.409 0.582,-0.635c1.976,-2.406 2.17,-5.516 0.433,-6.942c-0.453,-0.372 -0.994,-0.593 -1.58,-0.674Z" style="fill:#f57b10;"/><path d="M41.31,22.82c0.016,-0.002 2.334,-0.38 3.622,1.331c1.626,2.159 0.111,5.679 -2.793,7.235c-0.048,0.026 -0.097,0.051 -0.145,0.076l-0.241,-0.332c2.248,-2.255 2.391,-4.697 1.908,-6.009c-0.642,-1.743 -2.303,-1.878 -2.356,-1.887l0.005,-0.414Zm1.343,0.446c0.522,0.31 1.076,0.832 1.4,1.711c0.574,1.559 0.163,3.606 -1.056,5.333c0.074,-0.061 0.151,-0.126 0.23,-0.196c2.363,-2.091 2.682,-5.382 0.369,-6.541c-0.319,-0.16 -0.643,-0.254 -0.943,-0.307Z" style="fill:#1a1a1d;"/><path d="M25.254,10.082c1.22,-0.141 2.347,0.214 3.017,1.072c1.183,1.517 0.495,4.035 -1.536,5.62c-0.315,0.246 -0.644,0.455 -0.98,0.627c0.179,-0.175 0.352,-0.363 0.517,-0.563c1.752,-2.134 1.925,-4.893 0.384,-6.158c-0.402,-0.33 -0.882,-0.526 -1.402,-0.598Z" style="fill:#f57b10;"/><path d="M25.23,9.875c0.012,-0.001 2.083,-0.339 3.234,1.19c0.732,0.972 0.676,2.174 0.416,3.029c-0.734,2.413 -2.986,3.469 -3.029,3.492l-0.242,-0.332c0.229,-0.233 1.483,-1.427 1.822,-3.326c0.144,-0.806 0.106,-1.932 -0.576,-2.756c-0.635,-0.767 -1.486,-0.859 -1.629,-0.882l0.005,-0.414Zm1.316,0.468c0.433,0.284 0.875,0.737 1.141,1.461c0.527,1.431 0.103,3.195 -0.842,4.612c0.343,-0.297 0.71,-0.684 1.04,-1.18c1.37,-2.059 0.839,-4.426 -1.339,-4.893Z" style="fill:#1a1a1d;"/><path d="M36.545,30.841c1.201,-0.165 2.471,-0.881 3.437,-2.058c1.394,-1.697 1.725,-3.828 0.944,-5.243c0.6,0.046 1.153,0.249 1.608,0.623c1.552,1.275 1.379,4.056 -0.387,6.206c-0.478,0.582 -1.025,1.059 -1.598,1.42c-1.544,0.97 -3.283,1.097 -4.415,0.167c-0.373,-0.306 -0.647,-0.7 -0.822,-1.151c0.391,0.083 0.807,0.094 1.232,0.036Z" style="fill:#f57b10;"/><path d="M36.518,30.636c0.088,-0.014 1.792,-0.184 3.259,-1.932c1.163,-1.385 1.826,-3.436 0.966,-5.065l0.2,-0.307c0.01,0.001 1.756,0.034 2.533,1.732c1.205,2.634 -1.057,6.648 -4.276,7.56c-1.222,0.346 -2.146,0.109 -2.68,-0.168c-0.967,-0.501 -1.286,-1.295 -1.403,-1.574l0.236,-0.282c0.437,0.083 0.687,0.089 1.162,0.033l0,0.002Zm0.055,0.412c-0.374,0.044 -0.624,0.053 -0.908,0.022c0.262,0.463 0.89,1.241 2.176,1.306c2.782,0.142 5.824,-3.11 5.524,-6.135c-0.122,-1.231 -0.85,-1.819 -0.865,-1.832c-0.429,-0.392 -0.903,-0.547 -1.227,-0.612c1.135,2.842 -1.385,6.66 -4.522,7.223l-0.178,0.028Z" style="fill:#1a1a1d;"/><path d="M21.006,17.014c1.066,-0.146 2.192,-0.782 3.049,-1.825c1.236,-1.505 1.53,-3.396 0.837,-4.651c0.532,0.041 1.023,0.221 1.427,0.553c1.377,1.131 1.223,3.598 -0.343,5.506c-0.424,0.517 -0.909,0.94 -1.417,1.259c-1.369,0.861 -2.912,0.973 -3.916,0.148c-0.331,-0.272 -0.574,-0.621 -0.729,-1.021c0.347,0.074 0.716,0.083 1.093,0.032Z" style="fill:#f57b10;"/><path d="M20.978,16.808c0.041,-0.004 1.697,-0.166 3.025,-1.889c0.891,-1.156 1.447,-2.879 0.707,-4.282l0.2,-0.307c0.028,0.003 1.913,0.047 2.446,2.06c0.648,2.447 -1.535,5.766 -4.334,6.311c-0.94,0.183 -2.575,0.11 -3.303,-1.643l0.236,-0.282c0.468,0.088 0.678,0.066 1.023,0.029l0,0.002Zm0.056,0.412c-0.279,0.03 -0.48,0.051 -0.766,0.024c0.243,0.41 0.794,1.052 1.889,1.107c2.457,0.125 5.092,-2.735 4.883,-5.333c-0.09,-1.118 -0.685,-1.624 -0.824,-1.744c-0.326,-0.283 -0.702,-0.415 -0.972,-0.476c0.189,0.501 0.412,1.495 -0.054,2.812c-0.485,1.373 -1.873,3.248 -4.156,3.61Z" style="fill:#1a1a1d;"/><path d="M41.334,23.028c1.375,-0.159 2.646,0.241 3.401,1.209c1.334,1.71 0.558,4.549 -1.732,6.335c-0.355,0.277 -0.726,0.513 -1.104,0.707c0.202,-0.197 0.397,-0.409 0.582,-0.635c1.976,-2.406 2.17,-5.516 0.433,-6.942c-0.453,-0.372 -0.994,-0.593 -1.58,-0.674Z" style="fill:#1a1a1d;"/><path d="M41.31,22.82c0.016,-0.002 2.334,-0.38 3.622,1.331c1.626,2.159 0.111,5.679 -2.793,7.235c-0.048,0.026 -0.097,0.051 -0.145,0.076l-0.241,-0.332c2.248,-2.255 2.391,-4.697 1.908,-6.009c-0.642,-1.743 -2.303,-1.878 -2.356,-1.887l0.005,-0.414Zm1.343,0.446c0.522,0.31 1.076,0.832 1.4,1.711c0.574,1.559 0.163,3.606 -1.056,5.333c0.074,-0.061 0.151,-0.126 0.23,-0.196c2.363,-2.091 2.682,-5.382 0.369,-6.541c-0.319,-0.16 -0.643,-0.254 -0.943,-0.307Z" style="fill:#1a1a1d;"/><path d="M25.254,10.082c1.22,-0.141 2.347,0.214 3.017,1.072c1.183,1.517 0.495,4.035 -1.536,5.62c-0.315,0.246 -0.644,0.455 -0.98,0.627c0.179,-0.175 0.352,-0.363 0.517,-0.563c1.752,-2.134 1.925,-4.893 0.384,-6.158c-0.402,-0.33 -0.882,-0.526 -1.402,-0.598Z" style="fill:#1a1a1d;"/><path d="M25.23,9.875c0.012,-0.001 2.083,-0.339 3.234,1.19c0.732,0.972 0.676,2.174 0.416,3.029c-0.734,2.413 -2.986,3.469 -3.029,3.492l-0.242,-0.332c0.229,-0.233 1.483,-1.427 1.822,-3.326c0.144,-0.806 0.106,-1.932 -0.576,-2.756c-0.635,-0.767 -1.486,-0.859 -1.629,-0.882l0.005,-0.414Zm1.316,0.468c0.433,0.284 0.875,0.737 1.141,1.461c0.527,1.431 0.103,3.195 -0.842,4.612c0.343,-0.297 0.71,-0.684 1.04,-1.18c1.37,-2.059 0.839,-4.426 -1.339,-4.893Z" style="fill:#1a1a1d;"/><path d="M40.543,23.002c0.27,-0.018 0.535,-0.009 0.792,0.026c0.586,0.08 1.127,0.301 1.58,0.674c1.737,1.426 1.542,4.537 -0.433,6.942c-0.186,0.226 -0.38,0.438 -0.582,0.635c-1.948,1.901 -4.57,2.432 -6.144,1.14c-0.56,-0.46 -0.92,-1.096 -1.083,-1.827c0.203,0.095 0.418,0.167 0.64,0.214c0.176,0.451 0.449,0.844 0.822,1.151c1.132,0.93 2.871,0.803 4.415,-0.167c0.573,-0.36 1.12,-0.837 1.598,-1.42c1.766,-2.151 1.94,-4.932 0.387,-6.206c-0.455,-0.374 -1.009,-0.577 -1.608,-0.623c-0.076,-0.138 -0.163,-0.269 -0.261,-0.393c-0.039,-0.05 -0.08,-0.098 -0.123,-0.145Z" style="fill:#f57b10;"/><path d="M40.529,22.793c0.016,-0.001 2.057,-0.248 3.179,1.49c1.43,2.214 0.223,6.029 -2.749,8.025c-2.56,1.719 -5.515,1.249 -6.37,-1.249c-0.071,-0.207 -0.065,-0.208 -0.118,-0.421l0.289,-0.236c0.615,0.267 0.652,0.177 0.706,0.224c0.001,0.001 0.483,1.693 2.443,1.754c2.687,0.082 5.618,-2.968 5.471,-5.948c-0.073,-1.475 -1.007,-2.553 -2.417,-2.679c-0.055,-0.005 -0.118,0.016 -0.164,-0.014c-0.046,-0.03 -0.022,-0.145 -0.411,-0.597l0.142,-0.348Zm0.014,0.208c0.043,0.047 0.084,0.096 0.123,0.145c0.098,0.123 0.184,0.255 0.261,0.393c0.6,0.046 1.153,0.249 1.608,0.623c1.552,1.275 1.379,4.056 -0.387,6.206c-0.478,0.582 -1.025,1.059 -1.598,1.42c-1.544,0.97 -3.283,1.097 -4.415,0.167c-0.373,-0.306 -0.647,-0.7 -0.822,-1.151c-0.223,-0.047 -0.437,-0.119 -0.64,-0.214c0.163,0.731 0.523,1.366 1.083,1.827c1.573,1.292 4.195,0.761 6.144,-1.14c0.202,-0.197 0.397,-0.409 0.582,-0.635c1.976,-2.406 2.17,-5.516 0.433,-6.942c-0.453,-0.372 -0.994,-0.593 -1.58,-0.674c-0.256,-0.035 -0.521,-0.043 -0.792,-0.026Z" style="fill:#1a1a1d;"/><path d="M24.552,10.06c0.24,-0.016 0.475,-0.008 0.702,0.023c0.52,0.071 0.999,0.267 1.402,0.598c1.54,1.265 1.368,4.025 -0.384,6.158c-0.165,0.2 -0.337,0.388 -0.517,0.563c-1.728,1.686 -4.054,2.157 -5.45,1.011c-0.497,-0.408 -0.816,-0.972 -0.961,-1.62c0.18,0.085 0.371,0.148 0.568,0.19c0.156,0.4 0.398,0.749 0.729,1.021c1.004,0.825 2.547,0.713 3.916,-0.148c0.509,-0.32 0.993,-0.743 1.417,-1.259c1.567,-1.908 1.721,-4.375 0.343,-5.506c-0.404,-0.332 -0.895,-0.512 -1.427,-0.553c-0.068,-0.123 -0.145,-0.239 -0.231,-0.349c-0.035,-0.044 -0.071,-0.087 -0.109,-0.129Z" style="fill:#f57b10;"/><path d="M24.538,9.851c0.012,-0.001 1.838,-0.222 2.841,1.332c1.334,2.066 0.087,5.644 -2.723,7.325c-1.127,0.674 -2.405,0.908 -3.415,0.617c-1.746,-0.503 -2.052,-2.097 -2.1,-2.287l0.289,-0.236c0.539,0.234 0.587,0.16 0.633,0.199c0.002,0.002 0.421,1.499 2.151,1.552c2.516,0.077 5.196,-2.933 4.794,-5.584c-0.169,-1.117 -0.956,-1.921 -2.088,-2.022c-0.053,-0.005 -0.114,0.015 -0.158,-0.013c-0.066,-0.043 0.004,-0.097 -0.368,-0.536l0.142,-0.348Zm0.014,0.208c0.038,0.042 0.074,0.085 0.109,0.129c0.086,0.109 0.164,0.226 0.231,0.349c0.532,0.041 1.023,0.221 1.427,0.553c1.377,1.131 1.223,3.598 -0.343,5.506c-0.424,0.517 -0.909,0.94 -1.417,1.259c-1.369,0.861 -2.912,0.973 -3.916,0.148c-0.331,-0.272 -0.574,-0.621 -0.729,-1.021c-0.197,-0.042 -0.388,-0.105 -0.568,-0.19c0.145,0.648 0.464,1.212 0.961,1.62c1.396,1.146 3.722,0.675 5.45,-1.011c0.179,-0.175 0.352,-0.363 0.517,-0.563c1.752,-2.134 1.925,-4.893 0.384,-6.158c-0.402,-0.33 -0.882,-0.526 -1.402,-0.598c-0.227,-0.031 -0.462,-0.039 -0.702,-0.023Z" style="fill:#1a1a1d;"/><path d="M53.556,5.065c0.603,-0.297 0.722,-0.653 2.285,-0.641c0.326,0.002 0.662,0.035 1.004,0.095l-0.957,2.083c-1.049,-0.342 -2.041,-0.509 -2.934,-0.437l0.603,-1.1Z" style="fill:#fff;"/><path d="M53.404,4.907c0.592,-0.304 0.797,-0.567 1.623,-0.656c1.091,-0.117 1.98,0.085 2.12,0.108l-1.148,2.497c-1.046,-0.33 -1.822,-0.55 -3.031,-0.483l-0.198,-0.308l0.634,-1.158Zm0.305,0.313l-0.397,0.724c0.773,-0.01 1.444,0.098 2.462,0.406l0.766,-1.668c-0.282,-0.036 -0.762,-0.075 -1.318,-0.031c-0.838,0.067 -0.975,0.277 -1.514,0.569Z" style="fill:#1a1a1d;"/><path d="M32.95,3.109c0.317,-0.05 0.636,-0.093 0.954,-0.132c0.632,-0.078 1.154,0.062 1.573,0.292l-1.334,1.684c-0.683,-0.24 -1.583,-0.48 -2.506,-0.516l1.313,-1.328Z" style="fill:#fff;"/><path d="M32.85,2.913c1.046,-0.16 1.349,-0.194 1.745,-0.145c0.627,0.077 1.085,0.375 1.2,0.436l-1.58,1.994c-0.972,-0.333 -1.576,-0.493 -2.586,-0.552l-0.139,-0.355l1.361,-1.377Zm0.2,0.392l-0.949,0.959c0.536,0.053 1.11,0.162 1.969,0.446l1.081,-1.365c-0.633,-0.27 -1.083,-0.193 -2.101,-0.04Z" style="fill:#1a1a1d;"/><path d="M59.204,65.59c-1.909,-1.397 -3.843,-3.413 -5.678,-5.67c2.347,0.147 7.232,-0.386 9.859,-6.729c2.927,-7.068 2.254,-31.455 1.933,-39.701c0.931,0.789 1.778,1.557 2.518,2.256c0.235,0.222 0.459,0.437 0.672,0.644c1.571,1.528 2.51,2.596 2.51,2.596l0.476,0.016l-0.034,0.088c0,0 0.012,0.01 0.034,0.029c0.249,0.221 1.779,1.639 1.065,2.511c-4.677,5.716 0.854,24.087 0.682,27.965c-0.688,15.487 -9.517,16.606 -12.412,16.554c-0.132,-0.002 -0.251,-0.007 -0.357,-0.013c-0.345,-0.038 -0.667,-0.15 -0.95,-0.319c-0.019,-0.013 -0.039,-0.027 -0.058,-0.041c-0.086,-0.061 -0.173,-0.122 -0.259,-0.186Z" style="fill:#f57b10;"/><path d="M59.081,65.759c-2.373,-1.771 -4.104,-3.755 -5.717,-5.707l0.174,-0.34c1.495,0.068 6.828,0.199 9.655,-6.6c3.22,-7.745 2.018,-36.947 1.918,-39.613l0.342,-0.166c0.247,0.212 1.619,1.362 3.346,3.052c1.222,1.196 2.045,2.098 2.315,2.398l0.679,0.023l-0.088,0.229c1.982,1.853 1.021,2.721 0.963,2.794c-4.487,5.67 0.928,23.865 0.783,27.73c-0.223,5.943 -1.818,9.246 -2.173,9.982c-2.582,5.346 -6.858,6.646 -9.657,6.804c-1.029,0.058 -1.367,-0.024 -1.483,-0.052c-0.572,-0.14 -0.847,-0.379 -1.057,-0.53Zm0.245,-0.336l0.001,-0.001c0.105,0.075 0.489,0.417 1.109,0.499c0.004,0 1.349,0.134 3.062,-0.273c4.05,-0.963 8.975,-4.607 9.526,-15.882c0.064,-1.314 -0.283,-3.113 -1.012,-7.187c-1.298,-7.255 -2.848,-16.993 0.329,-21.01c0.047,-0.06 0.626,-0.506 -0.47,-1.771c-0.319,-0.369 -0.654,-0.645 -0.657,-0.647l0,-0.001c-0.133,-0.019 -0.268,-0.031 -0.395,-0.075c-0.001,-0 -0.998,-1.128 -2.617,-2.692c-1.166,-1.126 -2.142,-1.983 -2.659,-2.428c0.236,6.43 1.081,32.109 -1.997,39.39c-2.693,6.371 -7.525,6.824 -9.565,6.797c1.72,2.063 3.232,3.687 5.344,5.28Z" style="fill:#1a1a1d;"/><path d="M58.807,16.899c1.277,0.733 1.633,2.514 0.794,3.974c-0.838,1.46 -2.555,2.051 -3.832,1.318c-1.277,-0.733 -1.633,-2.514 -0.794,-3.974c0.838,-1.46 2.555,-2.051 3.832,-1.318Z" style="fill:#f57b10;"/><path d="M58.911,16.718c2.213,1.335 1.561,4.806 -0.855,5.782c-2,0.808 -3.998,-0.744 -3.717,-3.03c0.268,-2.18 2.574,-3.842 4.573,-2.752Zm-0.207,0.361l-0.001,0.001c-0.147,-0.079 -0.899,-0.53 -1.999,-0.115c-1.715,0.647 -2.587,2.963 -1.491,4.458c1.008,1.376 3.256,1.118 4.261,-0.752c0.685,-1.273 0.399,-2.84 -0.665,-3.527c-0.035,-0.023 -0.071,-0.044 -0.105,-0.066Z" style="fill:#1a1a1d;"/><path d="M55.842,10.917c1.277,0.733 1.633,2.514 0.794,3.974c-0.838,1.46 -2.555,2.051 -3.832,1.318c-1.277,-0.733 -1.633,-2.514 -0.794,-3.974c0.838,-1.46 2.555,-2.051 3.832,-1.318Z" style="fill:#f57b10;"/><path d="M55.946,10.735c2.213,1.335 1.561,4.806 -0.855,5.782c-2,0.808 -3.998,-0.744 -3.717,-3.03c0.268,-2.18 2.574,-3.842 4.573,-2.752Zm-0.207,0.361l-0.001,0.001c-0.147,-0.079 -0.899,-0.53 -1.999,-0.115c-1.715,0.647 -2.587,2.963 -1.491,4.458c1.008,1.376 3.256,1.118 4.261,-0.752c0.685,-1.273 0.399,-2.84 -0.665,-3.527c-0.035,-0.023 -0.071,-0.044 -0.105,-0.066Z" style="fill:#1a1a1d;"/><path d="M49.552,15.212c1.277,0.733 1.633,2.514 0.794,3.974c-0.838,1.46 -2.555,2.051 -3.832,1.318c-1.277,-0.733 -1.633,-2.514 -0.794,-3.974c0.838,-1.46 2.555,-2.051 3.832,-1.318Z" style="fill:#f57b10;"/><path d="M49.656,15.03c2.213,1.335 1.561,4.806 -0.855,5.782c-2,0.808 -3.998,-0.744 -3.717,-3.03c0.268,-2.18 2.574,-3.842 4.573,-2.752Zm-0.207,0.361l-0.001,0.001c-0.147,-0.079 -0.899,-0.53 -1.999,-0.115c-1.715,0.647 -2.587,2.963 -1.491,4.458c1.008,1.376 3.256,1.118 4.261,-0.752c0.685,-1.273 0.399,-2.84 -0.665,-3.527c-0.035,-0.023 -0.071,-0.044 -0.105,-0.066Z" style="fill:#1a1a1d;"/><path d="M52.007,21.143c1.277,0.733 1.633,2.514 0.794,3.974c-0.838,1.46 -2.555,2.051 -3.832,1.318c-1.277,-0.733 -1.633,-2.514 -0.794,-3.974c0.838,-1.46 2.555,-2.051 3.832,-1.318Z" style="fill:#f57b10;"/><path d="M52.111,20.962c2.213,1.335 1.561,4.806 -0.855,5.782c-2,0.808 -3.998,-0.744 -3.717,-3.03c0.268,-2.18 2.574,-3.842 4.573,-2.752Zm-0.207,0.361l-0.001,0.001c-0.147,-0.079 -0.899,-0.53 -1.999,-0.115c-1.715,0.647 -2.587,2.963 -1.491,4.458c1.008,1.376 3.256,1.118 4.261,-0.752c0.685,-1.273 0.399,-2.84 -0.665,-3.527c-0.035,-0.023 -0.071,-0.044 -0.105,-0.066Z" style="fill:#1a1a1d;"/><path d="M59.326,17.303c0.03,0.016 0.06,0.032 0.089,0.049c1.44,0.826 1.949,2.646 1.136,4.062c-0.812,1.415 -2.641,1.893 -4.08,1.067c-0.022,-0.013 -0.044,-0.025 -0.065,-0.038c1.163,0.272 2.49,-0.341 3.195,-1.569c0.71,-1.238 0.563,-2.705 -0.275,-3.57Z" style="fill:#1a1a1d;"/><path d="M59.424,17.118c0.171,0.096 0.535,0.289 0.932,0.739c1.387,1.574 0.898,4.132 -1.122,4.984c-0.446,0.188 -0.937,0.274 -1.425,0.247c-0.839,-0.046 -1.404,-0.408 -1.509,-0.468l0.152,-0.381c0.006,0.001 1.002,0.298 2.065,-0.462c1.473,-1.054 1.726,-3.151 0.73,-4.253c-0.023,-0.026 -0.047,-0.051 -0.071,-0.076l0.249,-0.329Zm0.679,1.085c0.119,0.351 0.193,0.788 0.147,1.303c-0.143,1.606 -1.346,2.843 -2.671,3.141c0.356,0.053 0.781,0.047 1.243,-0.098c1.892,-0.593 2.481,-2.881 1.281,-4.346Z" style="fill:#1a1a1d;"/><path d="M56.361,11.32c0.03,0.016 0.06,0.032 0.089,0.049c1.44,0.826 1.949,2.646 1.136,4.062c-0.812,1.415 -2.641,1.893 -4.08,1.067c-0.022,-0.013 -0.044,-0.025 -0.065,-0.038c1.163,0.272 2.49,-0.341 3.195,-1.569c0.71,-1.238 0.563,-2.705 -0.275,-3.57Z" style="fill:#1a1a1d;"/><path d="M56.459,11.136c0.171,0.096 0.535,0.289 0.932,0.739c1.387,1.574 0.898,4.132 -1.122,4.984c-0.446,0.188 -0.937,0.274 -1.425,0.247c-0.839,-0.046 -1.404,-0.408 -1.509,-0.468l0.152,-0.381c0.006,0.001 1.002,0.298 2.065,-0.462c1.473,-1.054 1.726,-3.151 0.73,-4.253c-0.023,-0.026 -0.047,-0.051 -0.071,-0.076l0.249,-0.329Zm0.679,1.085c0.119,0.351 0.193,0.788 0.147,1.303c-0.143,1.606 -1.346,2.843 -2.671,3.141c0.356,0.053 0.781,0.047 1.243,-0.098c1.892,-0.593 2.481,-2.881 1.281,-4.346Z" style="fill:#1a1a1d;"/><path d="M50.072,15.615c0.03,0.016 0.06,0.032 0.089,0.049c1.44,0.826 1.949,2.646 1.136,4.062c-0.812,1.415 -2.641,1.893 -4.08,1.067c-0.022,-0.013 -0.044,-0.025 -0.065,-0.038c1.163,0.272 2.49,-0.341 3.195,-1.569c0.71,-1.238 0.563,-2.705 -0.275,-3.57Z" style="fill:#1a1a1d;"/><path d="M50.17,15.431c0.171,0.096 0.535,0.289 0.932,0.739c1.387,1.574 0.898,4.132 -1.122,4.984c-0.446,0.188 -0.937,0.274 -1.425,0.247c-0.839,-0.046 -1.404,-0.408 -1.509,-0.468l0.152,-0.381c0.006,0.001 1.002,0.298 2.065,-0.462c1.473,-1.054 1.726,-3.151 0.73,-4.253c-0.023,-0.026 -0.047,-0.051 -0.071,-0.076l0.249,-0.329Zm0.679,1.085c0.119,0.351 0.193,0.788 0.147,1.303c-0.143,1.606 -1.346,2.843 -2.671,3.141c0.356,0.053 0.781,0.047 1.243,-0.098c1.892,-0.593 2.481,-2.881 1.281,-4.346Z" style="fill:#1a1a1d;"/><path d="M52.526,21.547c0.03,0.016 0.06,0.032 0.089,0.049c1.44,0.826 1.949,2.646 1.136,4.062c-0.812,1.415 -2.641,1.893 -4.08,1.067c-0.022,-0.013 -0.044,-0.025 -0.065,-0.038c1.163,0.272 2.49,-0.341 3.195,-1.569c0.71,-1.238 0.563,-2.705 -0.275,-3.57Z" style="fill:#1a1a1d;"/><path d="M52.624,21.362c0.171,0.096 0.535,0.289 0.932,0.739c1.387,1.574 0.898,4.132 -1.122,4.984c-0.446,0.188 -0.937,0.274 -1.425,0.247c-0.839,-0.046 -1.404,-0.408 -1.509,-0.468l0.152,-0.381c0.006,0.001 1.002,0.298 2.065,-0.462c1.473,-1.054 1.726,-3.151 0.73,-4.253c-0.023,-0.026 -0.047,-0.051 -0.071,-0.076l0.249,-0.329Zm0.679,1.085c0.119,0.351 0.193,0.788 0.147,1.303c-0.143,1.606 -1.346,2.843 -2.671,3.141c0.356,0.053 0.781,0.047 1.243,-0.098c1.892,-0.593 2.481,-2.881 1.281,-4.346Z" style="fill:#1a1a1d;"/><path d="M55.024,21.517c-0.633,-0.88 -0.69,-2.183 -0.049,-3.3c0.805,-1.403 2.422,-2.003 3.679,-1.399c0.81,0.807 0.933,2.253 0.224,3.489c-0.82,1.429 -2.446,2.039 -3.627,1.361c-0.08,-0.046 -0.155,-0.096 -0.227,-0.151Z" style="fill:#f57b10;"/><path d="M54.873,21.664c-0.006,-0.009 -0.794,-0.964 -0.491,-2.46c0.419,-2.07 2.568,-3.398 4.331,-2.588c0.023,0.011 0.048,-0.002 0.209,0.185c1.379,1.602 0.366,4.555 -1.814,5.229c-1.342,0.415 -2.205,-0.344 -2.234,-0.366Zm0.305,-0.292c0.146,0.112 0.864,0.603 1.92,0.221c1.84,-0.665 2.654,-3.191 1.508,-4.522c-0.007,-0.008 -0.007,-0.008 -0.075,-0.081c-2.099,-0.918 -4.345,1.495 -3.687,3.687c0.111,0.371 0.277,0.613 0.334,0.694Z" style="fill:#1a1a1d;"/><path d="M52.059,15.535c-0.633,-0.88 -0.69,-2.183 -0.049,-3.3c0.805,-1.403 2.422,-2.003 3.679,-1.399c0.81,0.807 0.933,2.253 0.224,3.489c-0.82,1.429 -2.446,2.039 -3.627,1.361c-0.08,-0.046 -0.155,-0.096 -0.227,-0.151Z" style="fill:#f57b10;"/><path d="M51.907,15.682c-0.006,-0.009 -0.794,-0.964 -0.491,-2.46c0.419,-2.07 2.568,-3.398 4.331,-2.588c0.023,0.011 0.048,-0.002 0.209,0.185c1.379,1.602 0.366,4.555 -1.814,5.229c-1.342,0.415 -2.205,-0.344 -2.234,-0.366Zm0.305,-0.292c0.146,0.112 0.864,0.603 1.92,0.221c1.84,-0.665 2.654,-3.191 1.508,-4.522c-0.007,-0.008 -0.007,-0.008 -0.075,-0.081c-2.099,-0.918 -4.345,1.495 -3.687,3.687c0.111,0.371 0.277,0.613 0.334,0.694Z" style="fill:#1a1a1d;"/><path d="M45.769,19.83c-0.633,-0.88 -0.69,-2.183 -0.049,-3.3c0.805,-1.403 2.422,-2.003 3.679,-1.399c0.81,0.807 0.933,2.253 0.224,3.489c-0.82,1.429 -2.446,2.039 -3.627,1.361c-0.08,-0.046 -0.155,-0.096 -0.227,-0.151Z" style="fill:#f57b10;"/><path d="M45.618,19.977c-0.006,-0.009 -0.794,-0.964 -0.491,-2.46c0.419,-2.07 2.568,-3.398 4.331,-2.588c0.023,0.011 0.048,-0.002 0.209,0.185c1.379,1.602 0.366,4.555 -1.814,5.229c-1.342,0.415 -2.205,-0.344 -2.234,-0.366Zm0.305,-0.292c0.146,0.112 0.864,0.603 1.92,0.221c1.84,-0.665 2.654,-3.191 1.508,-4.522c-0.007,-0.008 -0.007,-0.008 -0.075,-0.081c-2.099,-0.918 -4.345,1.495 -3.687,3.687c0.111,0.371 0.277,0.613 0.334,0.694Z" style="fill:#1a1a1d;"/><path d="M48.224,25.761c-0.633,-0.88 -0.69,-2.183 -0.049,-3.3c0.805,-1.403 2.422,-2.003 3.679,-1.399c0.81,0.807 0.933,2.253 0.224,3.489c-0.82,1.429 -2.446,2.039 -3.627,1.361c-0.08,-0.046 -0.155,-0.096 -0.227,-0.151Z" style="fill:#f57b10;"/><path d="M48.072,25.908c-0.006,-0.009 -0.794,-0.964 -0.491,-2.46c0.419,-2.07 2.568,-3.398 4.331,-2.588c0.023,0.011 0.048,-0.002 0.209,0.185c1.379,1.602 0.366,4.555 -1.814,5.229c-1.342,0.415 -2.205,-0.344 -2.234,-0.366Zm0.305,-0.292c0.146,0.112 0.864,0.603 1.92,0.221c1.84,-0.665 2.654,-3.191 1.508,-4.522c-0.007,-0.008 -0.007,-0.008 -0.075,-0.081c-2.099,-0.918 -4.345,1.495 -3.687,3.687c0.111,0.371 0.277,0.613 0.334,0.694Z" style="fill:#1a1a1d;"/><path d="M29.039,21.505c2.255,0.969 2.91,4.493 1.462,7.865c-1.449,3.372 -4.456,5.323 -6.711,4.354c-2.255,-0.969 -2.91,-4.493 -1.462,-7.865c1.449,-3.372 4.456,-5.323 6.711,-4.354Z" style="fill:#fff;"/><path d="M29.122,21.313c0.012,0.006 1.986,0.675 2.315,3.678c0.453,4.137 -2.66,8.846 -6.063,9.171c-3.03,0.29 -4.89,-3.099 -3.621,-7.335c1.134,-3.787 4.492,-6.567 7.199,-5.582c0.014,0.005 0.013,0.005 0.171,0.068Zm-0.166,0.384c-0.054,-0.027 -1.674,-0.848 -3.843,0.801c-3.1,2.357 -4.328,7.499 -2.471,10.035c1.896,2.59 5.893,0.888 7.668,-3.246c0.875,-2.038 0.961,-4.123 0.393,-5.625c-0.562,-1.485 -1.557,-1.879 -1.745,-1.966c-0,-0 -0.001,-0 -0.001,-0.001Z" style="fill:#1a1a1d;"/><path d="M28.701,25.367l0.825,-2.155l-0.785,-1.254l-1.253,3.271l1.212,0.138Z" style="fill:#1a1a1d;"/><path d="M28.896,25.442c-0.06,0.085 -0.048,0.107 -0.15,0.129c-0.023,0.005 -0.045,0.006 -0.068,0.004c-0.1,-0.011 -1.214,-0.135 -1.246,-0.145c-0.115,-0.033 -0.181,-0.162 -0.137,-0.275c0.101,-0.264 1.251,-3.272 1.269,-3.302c0.078,-0.131 0.272,-0.135 0.355,-0.004c0.064,0.102 0.786,1.249 0.8,1.282c0.057,0.133 -0,0.138 -0.822,2.312c-0.031,-0.028 -0.078,-0.033 -0.121,-0.042l0.121,0.042Zm-0.177,-0.062c-0.006,-0.004 -0.012,-0.008 -0.018,-0.013c-0.065,-0.059 -0.134,-0.138 -0.137,-0.226c-0.03,-0.722 0.004,-1.446 0.012,-2.169l-0.796,2.08l0.94,0.327Z" style="fill:#1a1a1d;"/><path d="M22.432,31.463l0.785,1.254l2.586,0.217l1.244,-3.247l2.348,0.266l1.138,-3.213l-0.785,-1.254l-1.138,3.213l-2.348,-0.266l-1.244,3.247l-2.586,-0.217Z" style="fill:#1a1a1d;"/><path d="M22.255,31.574c-0.032,-0.103 -0.058,-0.107 -0.01,-0.204c0.042,-0.085 0.121,-0.105 0.134,-0.109c0.194,-0.051 0.195,0.015 2.5,0.198c1.193,-3.105 1.173,-3.121 1.247,-3.184c0.118,-0.101 0.142,-0.04 2.343,0.199c1.084,-3.049 1.042,-3.088 1.172,-3.166c0.094,-0.057 0.223,-0.028 0.283,0.068c0.064,0.102 0.785,1.248 0.799,1.281c0.005,0.011 0.032,0.075 0.005,0.152c-0.092,0.26 -1.137,3.217 -1.152,3.245c-0.045,0.081 -0.122,0.099 -0.136,0.102c-0.177,0.04 -0.176,-0.019 -2.257,-0.244c-1.19,3.101 -1.172,3.116 -1.243,3.179c-0.01,0.009 -0.067,0.059 -0.155,0.051c-0.209,-0.017 -2.585,-0.214 -2.618,-0.222c-0.141,-0.034 -0.111,-0.083 -0.913,-1.346Zm1.321,0.209l2.089,0.93c1.198,-3.095 1.134,-3.185 1.338,-3.229c0.011,-0.002 0.023,-0.004 0.034,-0.005c0.178,-0.009 0.176,0.02 2.218,0.249l0.218,-2.837c-0.662,1.902 -0.643,1.972 -0.817,2.012c-0.011,0.003 -0.023,0.004 -0.035,0.005c-0.345,0.019 -0.341,-0.038 -2.223,-0.249c-1.195,3.092 -1.133,3.176 -1.331,3.225c-0.383,0.093 -0.471,0.018 -1.492,-0.1Z" style="fill:#1a1a1d;"/><path d="M21.558,27.899l1.138,-3.213l2.235,0.254l1.225,-3.197l2.586,0.217l-1.253,3.271l2.259,0.256l-1.138,3.213l-2.348,-0.266l-1.244,3.247l-2.586,-0.217l1.272,-3.321l-2.146,-0.244Z" style="fill:#f57b10;"/><path d="M21.361,27.829c1.148,-3.207 1.08,-3.299 1.289,-3.347c0.011,-0.003 0.023,-0.004 0.035,-0.005c0.17,-0.009 0.167,0.019 2.109,0.237c1.177,-3.042 1.115,-3.126 1.312,-3.174c0.022,-0.005 0.044,-0.007 0.067,-0.005c0.21,0.017 2.588,0.214 2.621,0.223c0.016,0.004 0.111,0.029 0.146,0.138c0.045,0.141 -0.009,0.143 -1.161,3.158c1.992,0.237 2.059,0.153 2.154,0.337c0.006,0.012 0.041,0.08 0.011,0.165c-0.378,1.071 -0.758,2.142 -1.138,3.213c-0.031,0.087 -0.104,0.118 -0.117,0.123c-0.091,0.038 -0.096,0.012 -2.29,-0.234c-1.195,3.092 -1.133,3.176 -1.331,3.225c-0.022,0.005 -0.044,0.007 -0.067,0.005c-0.21,-0.017 -2.588,-0.214 -2.621,-0.222c-0.112,-0.029 -0.142,-0.123 -0.147,-0.139c-0.045,-0.141 0.009,-0.143 1.179,-3.207c-1.894,-0.226 -1.93,-0.172 -2.022,-0.296c-0.062,-0.083 -0.039,-0.092 -0.029,-0.195c0.164,0.007 0.317,-0.116 0.482,-0.108c0.162,0.007 1.813,0.081 2.008,0.273c0.01,0.009 0.066,0.064 0.062,0.156c-0.018,0.516 -0.179,0.473 -1.187,3.129l2.154,0.181c1.193,-3.105 1.173,-3.121 1.246,-3.184c0.118,-0.101 0.142,-0.04 2.343,0.199l0.996,-2.811c-1.994,-0.229 -2.018,-0.183 -2.122,-0.285c-0.065,-0.064 -0.063,-0.142 -0.062,-0.155c0.009,-0.263 0.092,-0.242 1.167,-3.08l-2.154,-0.18c-1.173,3.056 -1.154,3.072 -1.227,3.135c-0.118,0.102 -0.142,0.04 -2.229,-0.186l-1.476,2.917Z" style="fill:#1a1a1d;"/><path d="M21.558,27.899l2.146,0.244l-0.427,1.116l-0.934,-0.106l-0.785,-1.254Z" style="fill:#1a1a1d;"/><path d="M21.581,27.691c2.145,0.255 2.214,0.17 2.309,0.358c0.006,0.012 0.041,0.081 0.008,0.167c-0.034,0.089 -0.261,0.688 -0.428,1.116c-0.035,0.089 -0.127,0.142 -0.217,0.132c-0.311,-0.034 -0.623,-0.07 -0.934,-0.106c-0.1,-0.012 -0.145,-0.084 -0.153,-0.096c-0.065,-0.103 -0.79,-1.256 -0.802,-1.285c-0.006,-0.015 -0.045,-0.11 0.027,-0.205c0.066,-0.087 0.082,-0.066 0.19,-0.081Zm0.594,0.488l0.964,0.855l0.274,-0.715l-1.238,-0.14Z" style="fill:#1a1a1d;"/><path d="M32.18,17.23c-0.365,-0.443 -0.401,-1.196 -0.042,-1.871c0.359,-0.675 1.005,-1.066 1.577,-1.009c0.365,0.443 0.401,1.196 0.042,1.871c-0.359,0.675 -1.005,1.066 -1.577,1.009Z" style="fill:#fff;"/><path d="M32.074,17.429c-0.006,-0.008 -0.529,-0.514 -0.364,-1.462c0.187,-1.078 1.124,-1.897 1.994,-1.826c0.039,0.003 0.083,-0.008 0.118,0.01c0.043,0.023 0.154,0.205 0.165,0.224c0.732,1.202 -0.379,3.137 -1.763,3.068c-0.012,-0.001 -0.011,-0.001 -0.15,-0.013Zm0.216,-0.406c0.79,-0.015 1.227,-0.756 1.353,-1.045c0.321,-0.736 0.086,-1.23 -0.037,-1.423c-0.932,0.018 -1.351,1.04 -1.354,1.046c-0.32,0.736 -0.085,1.229 0.038,1.422Z" style="fill:#1a1a1d;"/><path d="M59.849,66.037c0.039,-0.096 0.041,-0.205 0.08,-0.301c0.002,-0.005 6.829,-4.378 7.991,-13.693c0.957,-7.672 0.65,-27.722 0.447,-35.59c-0.004,-0.16 0.093,-0.099 0.203,-0.215c0.04,0.09 0.174,0.114 0.214,0.204c0.002,0.005 0.779,29.34 -0.657,36.964c-1.37,7.273 -6.109,11.333 -7.679,12.476c-0.141,0.103 -0.289,0.202 -0.29,0.202c-0.104,0.006 -0.206,-0.053 -0.31,-0.047Z" style="fill:#1a1a1d;"/><path d="M19.345,16.792c-0.184,-0.086 -0.357,-0.195 -0.517,-0.326c-1.377,-1.131 -1.271,-3.54 0.237,-5.376c1.508,-1.836 3.85,-2.409 5.227,-1.278c0.093,0.077 0.18,0.159 0.26,0.247c0.038,0.042 0.074,0.085 0.109,0.129c0.086,0.109 0.164,0.226 0.231,0.349c0.693,1.255 0.399,3.146 -0.837,4.651c-0.857,1.044 -1.984,1.679 -3.049,1.825c-0.377,0.052 -0.746,0.042 -1.093,-0.032c-0.197,-0.042 -0.388,-0.105 -0.568,-0.19Zm0.009,-1.814l0.006,0.005c0.116,0.095 0.246,0.168 0.385,0.219c0.182,0.067 0.381,0.096 0.59,0.091c0.749,-0.018 1.625,-0.481 2.288,-1.289c0.889,-1.083 1.098,-2.419 0.544,-3.162c-0.009,-0.012 -0.018,-0.023 -0.027,-0.035c-0.057,-0.071 -0.121,-0.136 -0.192,-0.195c-0.035,-0.029 -0.071,-0.055 -0.109,-0.08c-0.828,-0.546 -2.207,-0.095 -3.155,1.059c-0.988,1.203 -1.136,2.719 -0.331,3.387Z" style="fill:#f57b10;"/><path d="M19.256,16.981c-0.019,-0.009 -1.476,-0.585 -1.596,-2.521c-0.183,-2.942 2.857,-5.889 5.527,-5.38c2.491,0.475 3.099,3.708 1.03,6.24c-0.696,0.852 -1.695,1.569 -2.811,1.831c-1.231,0.289 -2.019,-0.113 -2.149,-0.17Zm0.176,-0.377l0.001,-0.001c2.48,1.098 5.806,-1.849 5.609,-4.791c-0.156,-2.336 -2.644,-3.186 -4.927,-1.453c-2.031,1.541 -2.783,4.54 -1.185,5.922c0.182,0.157 0.457,0.301 0.501,0.324Zm-0.212,-1.466c-1.552,-1.366 0.16,-4.575 2.365,-5.002c1.865,-0.361 2.744,1.557 1.55,3.507c-1.005,1.642 -2.864,2.309 -3.857,1.541c-0.02,-0.015 -0.039,-0.031 -0.058,-0.046Zm0.268,-0.32c1.294,1 3.723,-0.956 3.777,-2.89c0.049,-1.799 -1.998,-1.88 -3.376,-0.256c-0.824,0.971 -1.213,2.418 -0.401,3.145Z" style="fill:#1a1a1d;"/><path d="M19.354,14.978c-0.804,-0.668 -0.657,-2.184 0.331,-3.387c0.948,-1.154 2.327,-1.605 3.155,-1.059c0.037,0.025 0.074,0.051 0.109,0.08c0.071,0.059 0.135,0.124 0.192,0.195c0.009,0.011 0.018,0.023 0.027,0.035c0.554,0.744 0.345,2.079 -0.544,3.162c-0.664,0.808 -1.539,1.271 -2.288,1.289c-0.209,0.005 -0.408,-0.025 -0.59,-0.091c-0.139,-0.051 -0.269,-0.124 -0.385,-0.219l-0.006,-0.005Z" style="fill:#f57b10;"/><path d="M19.22,15.138c-1.552,-1.366 0.16,-4.575 2.365,-5.002c1.865,-0.361 2.744,1.557 1.55,3.507c-1.005,1.642 -2.864,2.309 -3.857,1.541c-0.02,-0.015 -0.039,-0.031 -0.058,-0.046Zm0.268,-0.32c1.294,1 3.723,-0.956 3.777,-2.89c0.049,-1.799 -1.998,-1.88 -3.376,-0.256c-0.824,0.971 -1.213,2.418 -0.401,3.145Z" style="fill:#1a1a1d;"/><path d="M34.673,30.591c-0.207,-0.097 -0.402,-0.219 -0.583,-0.368c-1.552,-1.275 -1.433,-3.991 0.267,-6.06c1.7,-2.07 4.34,-2.715 5.893,-1.44c0.105,0.087 0.203,0.18 0.293,0.279c0.043,0.047 0.084,0.096 0.123,0.145c0.098,0.123 0.184,0.255 0.261,0.393c0.781,1.415 0.45,3.546 -0.944,5.243c-0.966,1.176 -2.236,1.893 -3.437,2.058c-0.425,0.058 -0.841,0.048 -1.232,-0.036c-0.223,-0.047 -0.437,-0.119 -0.64,-0.214Zm0.01,-2.045l0.006,0.005c0.131,0.107 0.277,0.189 0.434,0.247c0.205,0.075 0.43,0.109 0.666,0.103c0.845,-0.02 1.832,-0.543 2.58,-1.453c1.003,-1.221 1.238,-2.727 0.614,-3.565c-0.01,-0.013 -0.02,-0.026 -0.03,-0.039c-0.064,-0.08 -0.136,-0.154 -0.216,-0.22c-0.039,-0.032 -0.08,-0.062 -0.122,-0.09c-0.933,-0.616 -2.488,-0.107 -3.557,1.194c-1.114,1.356 -1.28,3.065 -0.374,3.818Z" style="fill:#f57b10;"/><path d="M34.584,30.781c-0.025,-0.013 -1.65,-0.655 -1.784,-2.82c-0.197,-3.175 2.998,-6.485 6.051,-6.062c2.346,0.325 3.516,3.002 2.057,5.859c-0.477,0.933 -1.409,2.108 -2.796,2.802c-2.064,1.033 -3.52,0.224 -3.528,0.221Zm0.178,-0.378c0.178,0.077 1.413,0.699 3.271,-0.271c2.401,-1.253 3.839,-4.436 2.712,-6.49c-1.252,-2.283 -4.902,-1.593 -6.712,1.332c-1.183,1.912 -1.226,4.457 0.728,5.43l0,0Zm-0.211,-1.695c-1.677,-1.475 0.067,-4.918 2.462,-5.549c2.081,-0.549 3.222,1.413 2.056,3.616c-0.62,1.171 -1.681,1.98 -2.61,2.233c-1.14,0.31 -1.723,-0.157 -1.908,-0.3Zm0.265,-0.321l0.001,-0.001c0.002,0.001 0.592,0.584 1.764,0.143c1.981,-0.745 3.197,-3.442 2.168,-4.605c-1.073,-1.212 -3.686,0.212 -4.318,2.401c-0.203,0.703 -0.096,1.17 -0.07,1.285c0.115,0.511 0.433,0.756 0.456,0.777Z" style="fill:#1a1a1d;"/><path d="M34.683,28.546c-0.907,-0.753 -0.74,-2.462 0.374,-3.818c1.068,-1.301 2.624,-1.81 3.557,-1.194c0.042,0.028 0.083,0.058 0.122,0.09c0.08,0.066 0.153,0.14 0.216,0.22c0.01,0.013 0.02,0.026 0.03,0.039c0.624,0.838 0.389,2.344 -0.614,3.565c-0.748,0.911 -1.735,1.433 -2.58,1.453c-0.236,0.006 -0.46,-0.028 -0.666,-0.103c-0.157,-0.058 -0.303,-0.139 -0.434,-0.247l-0.006,-0.005Z" style="fill:#f57b10;"/><path d="M34.549,28.707c-1.676,-1.475 0.067,-4.917 2.462,-5.549c2.081,-0.549 3.222,1.413 2.056,3.616c-0.62,1.171 -1.681,1.98 -2.61,2.233c-1.141,0.31 -1.724,-0.158 -1.908,-0.3Zm0.266,-0.321l0.001,-0.001c0.002,0.001 0.592,0.584 1.764,0.143c1.981,-0.745 3.197,-3.442 2.168,-4.605c-1.073,-1.212 -3.686,0.212 -4.318,2.401c-0.203,0.703 -0.096,1.17 -0.07,1.285c0.115,0.511 0.433,0.756 0.456,0.777Z" style="fill:#1a1a1d;"/><path d="M57.138,4.576c0.325,0.07 0.655,0.163 0.988,0.275l-0.918,2.258c-0.319,-0.14 -0.634,-0.266 -0.946,-0.378l0.875,-2.155Z" style="fill:#fff;"/><path d="M57.176,4.403c0.081,0.019 0.601,0.14 1.006,0.28c0.102,0.035 0.144,0.146 0.108,0.234c-0.074,0.183 -0.916,2.258 -0.931,2.283c-0.04,0.066 -0.131,0.107 -0.22,0.07c-0.466,-0.194 -0.465,-0.194 -0.936,-0.374c-0.1,-0.038 -0.137,-0.147 -0.103,-0.232c0.071,-0.174 0.872,-2.155 0.887,-2.179c0.019,-0.032 0.048,-0.057 0.081,-0.071c0.039,-0.017 0.065,-0.01 0.108,-0.011Zm0.07,0.38l-0.751,1.847c0.271,0.102 0.351,0.135 0.618,0.248l0.778,-1.916c-0.274,-0.087 -0.374,-0.115 -0.645,-0.178Z" style="fill:#1a1a1d;"/></g></g></svg>