<?xml version="1.0" encoding="UTF-8" standalone="no"?>
<!DOCTYPE svg PUBLIC "-//W3C//DTD SVG 1.1//EN" "http://www.w3.org/Graphics/SVG/1.1/DTD/svg11.dtd">
<svg width="100%" height="100%" viewBox="0 0 113 113" version="1.1" xmlns="http://www.w3.org/2000/svg" xmlns:xlink="http://www.w3.org/1999/xlink" xml:space="preserve" xmlns:serif="http://www.serif.com/" style="fill-rule:evenodd;clip-rule:evenodd;stroke-linejoin:round;stroke-miterlimit:2;">
    <g transform="matrix(1,0,0,1,-7134.140619,-3201.925409)">
        <g id="check" transform="matrix(0.959394,0,0,0.959394,362.086306,212.56506)">
            <rect x="7058.68" y="3115.884" width="116.862" height="116.862" style="fill:none;"/>
            <g transform="matrix(-0.459458,-0.497539,0.497539,-0.459458,8586.473635,6132.308602)">
                <path d="M4685.05,1384.501C4684.936,1380.301 4684.63,1375.668 4684.092,1370.361C4683.469,1364.207 4682.395,1352.591 4678.503,1339.841C4675.731,1330.763 4674.538,1328.548 4673.083,1325.348C4672.529,1324.129 4672.429,1324.159 4672.206,1322.836C4672.12,1322.324 4671.617,1319.329 4673.852,1316.564C4674.178,1316.161 4676.087,1313.8 4679.637,1313.641C4679.85,1313.631 4680.984,1313.581 4682.275,1313.971C4683.064,1314.21 4683.682,1314.397 4691.311,1318.918C4693.198,1320.035 4695.575,1321.347 4701.729,1325.784C4703.496,1327.058 4711.508,1332.936 4717.582,1339.747C4718.321,1340.576 4725.727,1348.625 4724.846,1354.257C4724.48,1356.596 4723.81,1356.302 4721.476,1356.695C4721.184,1356.744 4721.332,1356.504 4719.603,1353.717L4719.395,1353.708L4719.3,1353.711C4719.074,1353.333 4717.701,1348.919 4702.679,1340.997C4702.611,1340.962 4699.635,1339.413 4695.563,1337.447C4695.887,1338.428 4696.107,1339.138 4696.219,1339.499C4700.171,1352.262 4701.069,1361.355 4701.475,1367.22C4701.485,1367.37 4701.636,1371.347 4701.578,1373.438C4701.552,1374.345 4701.513,1377.407 4701.002,1382.107C4700.691,1384.977 4700.204,1388.459 4699.438,1392.433C4699.274,1393.281 4699.046,1394.38 4698.747,1395.687C4697.642,1400.513 4695.57,1408.175 4692.231,1416.517C4689.972,1422.16 4683.373,1440.519 4664.943,1461.624C4664.41,1462.234 4664.419,1462.237 4663.909,1462.866C4663.21,1463.729 4663.157,1463.754 4662.052,1463.87C4662.034,1463.872 4660.023,1463.274 4660.019,1463.265C4659.685,1462.65 4659.096,1462.112 4659.023,1461.415C4658.855,1459.811 4659.276,1459.89 4660.253,1458.608C4662.627,1455.493 4665.56,1450.869 4665.998,1450.18C4676.494,1433.639 4680.432,1420.307 4682.086,1414.121C4682.313,1413.275 4683.628,1407.661 4684.283,1402.129C4684.489,1400.386 4684.66,1398.63 4684.791,1396.829C4685.07,1393.021 4685.171,1389.011 4685.05,1384.501ZM4719.444,1353.462L4719.394,1353.384L4719.381,1353.449L4719.444,1353.462ZM4676.431,1396.088C4671.526,1395.342 4666.61,1394.039 4661.767,1392.147C4658.438,1390.847 4650.973,1387.139 4645.091,1381.935C4630.419,1368.955 4625.708,1351.399 4631.372,1334.075C4631.745,1332.936 4631.995,1331.958 4632.033,1331.907C4633.124,1330.457 4633.207,1330.413 4633.352,1330.337C4634.312,1329.834 4634.368,1329.826 4635.404,1330.149C4636.439,1330.472 4636.48,1330.511 4636.984,1331.471C4637.692,1332.824 4637.346,1332.905 4636.913,1334.37C4636.345,1336.292 4635.311,1341.833 4635.89,1347.571C4637.677,1365.313 4651.636,1376.418 4665.397,1381.112C4665.675,1381.206 4670,1382.958 4676.636,1383.905C4676.782,1388.387 4676.699,1392.343 4676.431,1396.088ZM4733.202,1351.612C4741.409,1326.607 4723.251,1299.616 4687.35,1299.955C4664.455,1300.172 4655.818,1315.401 4652.049,1323.881C4648.362,1332.174 4646.39,1342.477 4646.13,1350.479C4646.061,1352.582 4645.461,1352.384 4643.549,1353.26C4643.54,1353.264 4641.625,1352.552 4641.612,1352.54C4640.67,1351.666 4640.793,1351.546 4640.72,1350.26C4640.6,1348.14 4639.725,1330.909 4646.845,1315.336C4653.848,1300.02 4664.757,1293.843 4673.021,1291.043C4688.191,1285.902 4721.281,1286.595 4739.029,1311.291C4753.786,1331.823 4751.563,1361.474 4727.677,1381.876C4721.828,1386.871 4715.088,1390.708 4707.824,1393.247C4708.996,1386.984 4709.514,1381.917 4709.752,1378.467C4716.234,1375.034 4722.133,1369.991 4726.587,1364.067C4729.43,1360.285 4731.685,1356.145 4733.128,1351.834L4733.202,1351.612Z"/>
            </g>
        </g>
    </g>
</svg>
