<?xml version="1.0" encoding="UTF-8" standalone="no"?>
<!DOCTYPE svg PUBLIC "-//W3C//DTD SVG 1.1//EN" "http://www.w3.org/Graphics/SVG/1.1/DTD/svg11.dtd">
<svg width="100%" height="100%" viewBox="0 0 109 30" version="1.1" xmlns="http://www.w3.org/2000/svg" xmlns:xlink="http://www.w3.org/1999/xlink" xml:space="preserve" xmlns:serif="http://www.serif.com/" style="fill-rule:evenodd;clip-rule:evenodd;stroke-linejoin:round;stroke-miterlimit:2;">
    <g transform="matrix(1,0,0,1,-5043.042386,-1269.931911)">
        <g transform="matrix(1,0,0,1,7735,1062.726341)">
            <g transform="matrix(0.117752,0,0,0.135127,-2736.96929,25.218891)">
                <path d="M1294.214,1493.029L1294.214,1537.08C1294.214,1548.218 1283.837,1557.261 1271.055,1557.261L415.357,1557.261C402.576,1557.261 392.198,1548.218 392.198,1537.08L392.198,1375.63C392.198,1364.492 402.576,1355.449 415.357,1355.449L1271.055,1355.449C1283.837,1355.449 1294.214,1364.492 1294.214,1375.63L1294.214,1419.681C1270.987,1419.681 1252.129,1436.114 1252.129,1456.355C1252.129,1476.596 1270.987,1493.029 1294.214,1493.029Z" style="fill:rgb(245,190,16);"/>
                <path d="M1304.154,1493.029C1304.111,1537.161 1304.892,1537.231 1303.479,1542.883C1299.716,1557.934 1284.967,1565.919 1271.118,1565.919C419.586,1565.912 417.425,1571.599 398.218,1561.699C390.285,1557.61 382.317,1548.749 382.315,1537.134C382.312,1524.038 382.28,1374.788 382.419,1373.424C384.105,1356.883 399.711,1346.844 415.295,1346.842C1267.885,1346.762 1269.886,1341.532 1287.53,1350.625C1289.66,1351.722 1302.968,1358.58 1304.048,1373.421C1304.342,1377.458 1307.239,1417.266 1302.837,1423.976C1299.018,1429.797 1292.983,1427.338 1284.658,1429.596C1254.769,1437.703 1254.774,1475.007 1284.66,1483.109C1292.993,1485.367 1298.986,1482.908 1302.823,1488.698C1303.112,1489.134 1303.406,1489.58 1303.555,1490.066C1303.853,1491.035 1303.857,1492.06 1304.154,1493.029ZM1284.268,1500.727C1253.417,1495.597 1242.191,1472.066 1242.192,1456.355C1242.193,1440.327 1253.724,1417.059 1284.285,1411.981C1284.369,1375.917 1285.388,1375.411 1283.121,1370.894C1281.594,1367.854 1277.424,1364.1 1270.993,1364.099C416.464,1364.039 416.134,1362.917 410.494,1364.855C406.118,1366.359 402.089,1370.226 402.073,1375.684C402.034,1388.76 401.593,1535.735 402.29,1539.134C403.348,1544.293 408.566,1548.647 415.42,1548.647C1269.742,1548.638 1270.174,1549.996 1276.193,1547.7C1282.741,1545.203 1284.269,1539.874 1284.272,1537.381C1284.29,1525.163 1284.265,1512.945 1284.268,1500.727Z" style="fill:rgb(26,26,29);"/>
            </g>
        </g>
    </g>
</svg>
