<?xml version="1.0" encoding="UTF-8" standalone="no"?><!DOCTYPE svg PUBLIC "-//W3C//DTD SVG 1.1//EN" "http://www.w3.org/Graphics/SVG/1.1/DTD/svg11.dtd"><svg width="100%" height="100%" viewBox="0 0 10 10" version="1.1" xmlns="http://www.w3.org/2000/svg" xmlns:xlink="http://www.w3.org/1999/xlink" xml:space="preserve" xmlns:serif="http://www.serif.com/" style="fill-rule:evenodd;clip-rule:evenodd;stroke-linejoin:round;stroke-miterlimit:2;"><rect id="Artboard6" x="0.053" y="0" width="9.103" height="9.103" style="fill:none;"/><clipPath id="_clip1"><rect x="0.053" y="0" width="9.103" height="9.103"/></clipPath><g clip-path="url(#_clip1)"><g><circle cx="4.605" cy="4.552" r="4.552" style="fill:#fff;"/><path d="M4.611,3.732c-0.468,0 -0.851,0.382 -0.851,0.851c0,0.468 0.382,0.851 0.851,0.851c0.468,0 0.851,-0.382 0.851,-0.851c0,-0.468 -0.382,-0.851 -0.851,-0.851Zm2.552,0.851c0,-0.352 0.003,-0.701 -0.019,-1.053c-0.022,-0.409 -0.126,-0.771 -0.42,-1.066c-0.295,-0.295 -0.657,-0.398 -1.066,-0.42c-0.352,-0.022 -0.701,-0.019 -1.053,-0.019c-0.352,0 -0.701,-0.003 -1.053,0.019c-0.409,0.022 -0.771,0.126 -1.066,0.42c-0.295,0.295 -0.398,0.657 -0.42,1.066c-0.022,0.352 -0.019,0.701 -0.019,1.053c0,0.352 -0.003,0.701 0.019,1.053c0.022,0.409 0.126,0.771 0.42,1.066c0.295,0.296 0.657,0.398 1.066,0.42c0.352,0.022 0.701,0.019 1.053,0.019c0.352,0 0.701,0.003 1.053,-0.019c0.409,-0.022 0.771,-0.126 1.066,-0.42c0.296,-0.295 0.398,-0.657 0.42,-1.066c0.023,-0.352 0.019,-0.701 0.019,-1.053Zm-2.552,1.309c-0.724,0 -1.309,-0.585 -1.309,-1.309c0,-0.724 0.585,-1.309 1.309,-1.309c0.724,0 1.309,0.585 1.309,1.309c0,0.724 -0.585,1.309 -1.309,1.309Zm1.363,-2.366c-0.169,0 -0.306,-0.137 -0.306,-0.306c0,-0.169 0.137,-0.306 0.306,-0.306c0.169,0 0.306,0.137 0.306,0.306c0,0.04 -0.008,0.08 -0.023,0.117c-0.015,0.037 -0.038,0.071 -0.066,0.099c-0.028,0.028 -0.062,0.051 -0.099,0.066c-0.037,0.015 -0.077,0.023 -0.117,0.023Z" style="fill:#1a1a1d;fill-rule:nonzero;"/></g></g></svg>