<?xml version="1.0" encoding="UTF-8" standalone="no"?><!DOCTYPE svg PUBLIC "-//W3C//DTD SVG 1.1//EN" "http://www.w3.org/Graphics/SVG/1.1/DTD/svg11.dtd"><svg width="100%" height="100%" viewBox="0 0 621 220" version="1.1" xmlns="http://www.w3.org/2000/svg" xmlns:xlink="http://www.w3.org/1999/xlink" xml:space="preserve" xmlns:serif="http://www.serif.com/" style="fill-rule:evenodd;clip-rule:evenodd;stroke-linejoin:round;stroke-miterlimit:2;"><rect id="Artboard1" x="0" y="0" width="620.977" height="219.949" style="fill:none;"/><clipPath id="_clip1"><rect x="0" y="0" width="620.977" height="219.949"/></clipPath><g clip-path="url(#_clip1)"><path d="M516.672,71.893c-0.076,-0.268 -0.035,-0.414 0.142,-0.855c0.003,-0.008 0.888,-0.916 0.893,-0.916c0.423,-0.005 0.877,-0.168 1.27,-0.011c0.768,0.307 0.654,0.462 1.085,1.167c0.12,0.198 0.251,0.403 0.392,0.614c2.006,3.017 6.074,7.409 12.239,11.272c0.075,0.047 2.174,1.478 6.652,3.705c2.169,1.079 5.822,2.663 9.423,3.842c2.566,0.84 5.106,1.476 7.064,1.577c1.83,0.095 2.95,-0.258 3.346,-0.769c1.252,-1.619 0.411,-7.084 -3.278,-13.329c-3.661,-6.197 -6.907,-8.261 -8.903,-9.591c-0.141,-0.094 -4.76,-3.238 -9.399,-4.945c-0.991,-0.364 -4.478,-1.781 -7.286,-1.566c-0.418,0.032 -1.255,0.172 -1.491,0.499c-0.316,0.436 -0.87,2.811 3.105,8.676c0.096,0.142 0.438,0.533 0.44,0.537l0.029,0.09c0.331,1.027 0.365,1.023 0.357,1.122c-0.054,0.669 -0.068,0.701 -0.579,1.137c-0.512,0.436 -0.546,0.445 -1.216,0.391c-0.992,-0.08 -0.88,-0.35 -1.556,-1.079c-0.218,-0.235 -0.777,-0.788 -1.471,-1.571c-2.352,-2.653 -6.251,-7.944 -3.657,-12.416c0.143,-0.246 0.52,-0.898 1.314,-1.595c-0.132,-0.142 -0.26,-0.286 -0.347,-0.449c-0.037,-0.07 -0.067,-0.143 -0.086,-0.222c-0.193,-0.805 -0.069,-0.823 0.36,-1.529c0.004,-0.006 0.73,-1.092 2.18,-4.115c6.814,-14.212 8.853,-29.563 9.455,-38.513c0.202,-3.007 0.242,-5.291 0.246,-6.567c0.003,-1.135 -0.034,-1.684 0.03,-2.064c0.257,-1.524 1.387,-2.207 1.579,-2.324c1.323,-0.8 2.578,-0.389 2.792,-0.319c1.469,0.481 1.977,1.701 2.063,1.908c0.262,0.631 1.646,6.781 2.369,11.278c0.813,5.062 1.291,9.234 1.598,12.628c0.641,2.781 0.941,5.836 0.941,9.121l0,2.661c0.969,7.298 2.799,7.582 3.87,7.725c3.328,0.445 11.165,-2.254 17.545,-6.105c11.271,-6.803 17.499,-16.25 19.717,-20.538c0.226,-0.437 0.195,-0.454 0.48,-0.857c0.158,-0.223 1.083,-1.532 2.95,-1.71c0.272,-0.026 1.867,-0.178 3.22,1.121c0.197,0.189 1.353,1.299 1.251,3.172c-0.013,0.234 -0.046,0.467 -0.098,0.696c-0.102,0.444 -0.139,0.601 -2.223,5.249c-9.863,21.993 -16.572,31.366 -17.764,33.246c-2.374,3.745 -2.742,5.21 -2.803,5.838c1.024,0.867 5.122,1.702 5.573,1.794c1.097,0.224 2.505,0.511 13.798,2.303c2.222,0.353 9.794,1.549 17.932,1.685c2.003,0.034 3.375,-0.032 4.146,-0.088c0.212,-0.037 0.4,-0.067 0.557,-0.089c1.079,-0.148 1.604,-0.018 1.973,0.14c0.11,0.047 0.892,0.382 1.244,0.84c0.341,0.444 0.382,0.42 0.597,0.936c0.537,1.294 0.039,2.38 -0.047,2.567c-0.034,0.073 -0.213,0.464 -0.559,0.839c-0.1,0.108 -0.573,0.514 -0.632,0.55c-0.276,0.166 -0.719,0.544 -3.994,0.797c-3.28,0.528 -9.316,1.63 -15.088,2.966c-16.798,3.888 -28.32,8.655 -33.318,11.134c-1.633,4.505 -6.017,7.516 -13.646,6.232c-0.569,-0.096 -2.069,-0.348 -4.681,-1.206c-1.715,-0.563 -3.908,-1.387 -6.632,-2.598c-1.357,-0.603 -5.317,-2.521 -8.186,-4.417c-1.518,-1.003 -9.83,-6.355 -15.199,-15.415c-1.342,-2.265 -1.883,-3.759 -1.921,-3.858c-0.072,-0.186 -0.125,-0.32 -0.157,-0.433Zm25.151,-14.459c0.647,0.235 1.381,0.519 2.176,0.855c0.81,0.342 4.91,2.073 9.61,5.328c5.414,3.749 11.097,11.594 13.387,19.661c0.761,2.68 0.855,4.858 0.839,6.019c5.132,-2.705 10.861,-5.051 11.877,-5.468c4.819,-1.974 9.708,-3.726 14.681,-5.292c-3.04,-0.377 -5.939,-0.796 -8.583,-1.17c-9.609,-1.359 -15.922,-2.382 -17.967,-7.231c-2.31,-5.478 2.822,-11.88 6.38,-17.835c1.233,-2.063 2.504,-4.329 3.781,-6.716c-4.532,3.152 -9.88,5.964 -16.105,7.948c-3.976,1.267 -8.979,2.395 -13.132,0.642c-1.74,-0.734 -3.331,-1.974 -4.635,-3.921c-3.5,-5.227 -3.297,-14.196 -3.713,-20.928c-2.237,8.533 -5.751,17.973 -11.208,26.692l-0.037,0.059c2.202,-0.564 5.33,-0.657 9.744,0.429c0.044,0.011 1.163,0.294 2.904,0.928Zm-541.822,65.019l0,-113.214l83.429,0c-6.297,2.61 -9.859,7.06 -11.173,8.949c-3.146,4.037 -35.83,44.8 -40.45,50.806c-2.522,3.279 -5.047,6.847 -6.608,10.405c-0.231,0.526 -0.445,1.055 -0.641,1.584l-24.556,41.47Zm104.16,-113.214l104.826,0l0,70.997c-6.113,-8.933 -12.417,-20.095 -14.745,-24.293c-1.066,-3.37 -3.079,-6.678 -6.509,-9.709c-3.024,-2.672 -7.872,-5.495 -15.103,-7.859c-48.871,-15.977 -60.787,-24.956 -61.122,-25.213c-0.876,-0.737 -1.828,-1.376 -2.842,-1.904c-1.558,-0.812 -3.06,-1.478 -4.504,-2.02Zm104.826,113.791l0,95.196l-66.761,0c0.671,-0.237 1.316,-0.49 1.938,-0.758c7.254,-3.124 11.896,-8.675 18.021,-17.207c5.617,-7.824 35.715,-58.504 46.801,-77.23Zm-93.825,95.196l-115.162,0l0,-54.411c1.697,1.796 3.753,3.556 6.246,5.234c9.171,6.173 52.848,27.416 83.884,40.132c9.981,4.09 18.788,7.272 25.032,9.045Zm7.744,-11.667c-5.264,-0.893 -15.528,-4.545 -27.782,-9.566c-30.143,-12.351 -72.616,-32.875 -81.523,-38.871c-4.353,-2.93 -6.573,-6.177 -7.616,-9.23c-2.345,-6.863 1.319,-12.974 1.799,-13.729l28.662,-48.404c0.042,-0.07 0.086,-0.138 0.134,-0.202c0.181,-0.624 0.41,-1.247 0.681,-1.865c1.158,-2.64 3.115,-5.233 4.986,-7.665c4.744,-6.167 39.028,-48.921 40.696,-51.126c0.453,-0.705 2.657,-3.813 7.027,-5.003c3.031,-0.825 7.199,-0.775 12.612,2.045c0.164,0.085 0.317,0.189 0.457,0.31c0,0 12.184,10.214 65.499,27.644c4.968,1.624 8.396,3.373 10.473,5.209c1.69,1.494 2.604,3.099 2.909,4.769c1.276,2.333 9.279,16.838 16.807,27.687c4.615,6.651 5.319,11.777 4.98,15.204c-0.324,3.269 -1.612,5.208 -2.051,5.785c-2.157,3.657 -43.518,73.764 -50.169,83.029c-4.402,6.132 -7.318,10.546 -12.531,12.791c-3.281,1.413 -7.503,2.001 -13.658,1.468c-0.434,-0.038 -0.877,-0.081 -1.33,-0.13c-0.327,-0.035 -0.681,-0.085 -1.061,-0.15Zm13.711,-81.135l-0.229,0.315c-0.05,0.069 -0.103,0.134 -0.16,0.197c0,0 -1.32,1.472 -3.701,3l12.14,64.973c0.91,-1.264 1.856,-2.646 2.92,-4.129c0.26,-0.363 0.574,-0.819 0.936,-1.361l-11.63,-62.24c-0.051,-0.273 -0.147,-0.527 -0.278,-0.755Zm-4.057,-82.325c-18.176,-7.701 -31.098,-14.972 -32.408,-16.01c-3.83,-1.947 -6.759,-2.15 -8.922,-1.561c-2.908,0.792 -4.24,2.949 -4.24,2.949c-0.047,0.08 -0.099,0.157 -0.155,0.231c0,0 -35.916,44.914 -40.785,51.244c-1.381,1.796 -2.838,3.675 -3.876,5.608c-0.846,1.575 -1.433,3.169 -1.223,4.783c0.293,2.248 2.123,4.322 6.059,6.489c27.773,15.294 49.38,22.991 69.228,29.768c9.241,3.156 15.616,-3.04 16.357,-3.805c1.971,-2.71 36.023,-49.509 41.955,-55.916c1.793,-1.936 2.888,-3.52 2.662,-5.066c-0.151,-1.03 -0.96,-1.886 -2.23,-2.781c-1.795,-1.265 -4.425,-2.428 -7.935,-3.575c-12.402,-3.568 -24.273,-8.031 -34.486,-12.358Zm-27.97,31.736c-1.79,8.02 -1.813,8.112 -1.949,8.448c-0.68,1.676 -2.125,2.218 -2.373,2.311c-1.694,0.635 -3.072,-0.061 -3.308,-0.18c-3.928,-1.984 -7.862,-3.958 -11.785,-5.953c-1.695,-0.862 -2.078,-2.43 -2.144,-2.698c-0.057,-0.23 -0.093,-0.466 -0.11,-0.703c-0.01,-0.152 -0.012,-0.306 -0.006,-0.458c-0.177,0.11 -0.362,0.207 -0.553,0.29c-0.217,0.093 -0.443,0.168 -0.673,0.223c-0.23,0.055 -0.465,0.09 -0.701,0.105c-0.236,0.015 -0.474,0.009 -0.709,-0.017c-0.235,-0.026 -0.468,-0.072 -0.695,-0.138c-0.341,-0.099 -0.61,-0.23 -0.661,-0.255c-3.386,-1.654 -6.776,-3.299 -10.157,-4.963c-0.2,-0.098 -0.393,-0.213 -0.574,-0.342c-0.183,-0.13 -0.355,-0.275 -0.515,-0.433c-0.159,-0.158 -0.306,-0.329 -0.437,-0.511c-0.297,-0.411 -0.291,-0.418 -0.479,-0.889c-0.187,-0.468 -0.195,-0.468 -0.264,-0.967c-0.035,-0.259 -0.242,-1.765 0.882,-3.152c7.965,-9.828 15.938,-19.649 23.92,-29.463c1.155,-1.419 2.711,-1.505 2.978,-1.52c0.229,-0.013 0.46,-0.006 0.688,0.019c0.228,0.026 0.454,0.07 0.675,0.133c0.219,0.063 0.433,0.144 0.639,0.241c3.008,1.422 6.011,2.855 9.009,4.297c0.199,0.095 0.39,0.207 0.572,0.332c0.182,0.126 0.355,0.268 0.515,0.422c0.16,0.154 0.307,0.322 0.44,0.499c0.267,0.357 0.272,0.356 0.446,0.766c0.06,0.141 0.127,0.28 0.173,0.426c0.066,0.206 0.118,0.417 0.152,0.631c0.035,0.217 0.052,0.437 0.052,0.656c0.391,-0.247 0.782,-0.494 1.173,-0.741c0.256,-0.162 0.554,-0.255 0.848,-0.329c0.215,-0.054 0.435,-0.091 0.655,-0.109c0.221,-0.019 0.444,-0.02 0.665,-0.003c0.221,0.017 0.441,0.052 0.656,0.104c0.214,0.052 0.424,0.121 0.627,0.206c3.717,1.553 7.429,3.115 11.137,4.689c1.707,0.724 2.212,2.214 2.299,2.469c0.075,0.219 0.131,0.446 0.168,0.675c0.037,0.229 0.054,0.461 0.052,0.693c-0.002,0.232 -0.024,0.464 -0.065,0.692c-0.041,0.228 -0.101,0.453 -0.18,0.671c-0.079,0.218 -0.176,0.43 -0.29,0.632c-0.114,0.202 -0.246,0.394 -0.392,0.574c-0.146,0.18 -0.309,0.347 -0.483,0.5c-0.263,0.229 -0.513,0.382 -0.56,0.412c-3.029,1.854 -6.071,3.686 -9.105,5.531c1.181,-0.176 2.37,-0.475 3.572,-0.882c2.381,-0.806 4.903,0.785 5.29,3.183c0.26,1.611 -0.555,3.327 -1.968,4.144c-0.086,0.05 -0.292,0.159 -0.619,0.286l-1.097,0.205l-0.003,0.004l0.945,-0.152l0.079,-0.028c-0.627,0.24 -2.303,0.835 -4.243,1.705c-0.147,0.066 -0.29,0.131 -0.429,0.196c2.237,1.199 4.847,2.753 5.083,2.953c2.028,1.711 1.746,4.999 -0.543,6.34c-1.469,0.86 -2.942,0.418 -3.186,0.339c-0.016,-0.005 -3.949,-1.536 -8.41,-2.265c-0.263,-0.043 -1.824,-0.308 -3.213,-0.339c-0.587,0.263 -1.124,0.412 -1.513,0.49Zm0.786,-3.524l0.025,-0.001c1.734,-0.061 4.056,0.317 4.405,0.374c4.693,0.768 8.835,2.367 8.852,2.372c0.055,0.018 0.387,0.125 0.717,-0.069c0.503,-0.295 0.565,-1.018 0.119,-1.394c-0.228,-0.193 -2.952,-1.758 -5.044,-2.854c-3.166,-1.659 -3.809,-1.819 -4.067,-2.107c0.065,-0.179 0.6,-1.235 5.173,-3.285c2.012,-0.902 3.75,-1.521 4.401,-1.77l0.062,-0.02l-0.001,-0.003c0.104,-0.04 0.172,-0.069 0.199,-0.084c0.35,-0.202 0.552,-0.628 0.488,-1.027c-0.096,-0.595 -0.723,-0.988 -1.315,-0.788c-3.229,1.093 -6.374,1.497 -9.53,1.055c-0.77,-0.108 -1.541,-0.266 -2.313,-0.477c-0.015,-0.036 -0.041,-0.115 -0.042,-0.271c-0.001,-0.083 0.004,-0.172 0.014,-0.265c0.079,-0.765 0.487,-1.843 1.005,-2.947l0.008,-0.017c0.538,-1.144 1.193,-2.314 1.717,-3.188c0.484,-0.655 0.732,-1.105 0.802,-1.223c0.521,-0.883 -0.566,-1.64 -1.213,-0.996c-0.164,0.164 -0.972,1.291 -1.832,2.742c-0.733,0.885 -1.5,1.623 -2.19,2.223c-2.039,1.771 -4.079,2.856 -4.816,3.213c-0.825,0.138 -1.358,0.848 -1.467,1.77c-0.114,0.964 0.249,1.728 0.249,1.729c0.088,0.23 0.049,0.278 0.274,0.375c0.004,0.002 0.314,0.005 0.316,0.004c0.242,-0.236 0.329,-0.25 0.213,-0.567c-0.114,-0.313 -0.119,-1.101 0.172,-1.599c0.239,-0.411 0.453,-0.344 0.835,-0.102c0.342,0.217 0.824,0.713 1.321,1.337l0.013,0.017c0.552,0.694 1.122,1.544 1.54,2.34c0.218,0.414 0.394,0.815 0.506,1.171c0.186,0.595 0.65,2.2 -1.162,2.904c-0.071,-0.021 -0.15,-0.046 -0.237,-0.075c-0.298,-0.101 -0.687,-0.259 -1.139,-0.514c-0.246,-0.139 -0.482,-0.296 -0.707,-0.469l-0.014,-0.011c-1.989,-1.537 -3.177,-4.3 -3.574,-6.267c-0.049,-0.243 -0.001,-0.275 -0.189,-0.436c-0.075,-0.064 -0.186,-0.067 -0.279,-0.099c-0.002,-0.001 -0.266,0.138 -0.269,0.141c-0.136,0.159 -0.114,0.175 -0.11,0.385c0.03,1.913 0.591,3.532 0.693,3.826c0.804,2.318 2.187,3.657 3.29,4.406l0.015,0.01c0.62,0.419 1.149,0.651 1.436,0.766c0.164,0.066 0.304,0.119 0.425,0.162c0.517,0.183 0.671,0.173 0.75,0.168c0.203,-0.013 0.814,-0.169 1.453,-0.562l0.024,-0.001Zm-4.802,2.583c-1.561,-0.823 -4.119,-2.662 -5.462,-6.537c-0.127,-0.367 -0.823,-2.387 -0.861,-4.774c-0.011,-0.726 0.082,-1.036 0.213,-1.377c0.105,-0.274 0.251,-0.593 0.629,-1.034c0.013,-0.015 0.991,-0.77 1.217,-0.882l0.533,-0.206l0.944,-0.106c0.576,-0.641 1.316,-1.106 2.165,-1.349c0.781,-0.403 2.325,-1.291 3.87,-2.633c0.535,-0.465 1.127,-1.028 1.699,-1.697c1.013,-1.679 1.978,-2.935 2.173,-3.129c2.193,-2.18 5.415,-0.986 6.293,1.359c0.316,0.844 0.384,1.86 -0.103,2.925l7.912,-4.845l-11.13,-4.683l-18.159,11.606l0.017,-0.022l-0.024,0.015l10.995,-14.541l-8.989,-4.29l-23.927,29.453l10.145,4.954l11.776,-15.575l-0.007,0.026l0.015,-0.019l-5.466,19.246l11.78,5.954l1.755,-7.838Zm2.802,-12.516c-0.189,-0.153 -0.316,-0.235 -0.372,-0.273c-0.197,-0.135 -0.389,-0.246 -0.574,-0.336c0.123,-0.06 0.254,-0.124 0.39,-0.194c1.352,-0.688 2.505,-1.421 3.481,-2.147c-0.117,0.292 -0.222,0.58 -0.31,0.86l-0.005,0.015c-0.151,0.48 -0.254,0.936 -0.291,1.345c-0.041,0.457 0.003,0.827 0.095,1.126c0.284,0.918 1.031,1.172 1.242,1.236c0.168,0.051 0.335,0.099 0.502,0.144c1.6,0.435 3.155,0.621 4.596,0.654c-1.013,0.563 -1.923,1.16 -2.582,1.764c-1.703,1.561 -1.401,3.183 0.327,4.044c0.493,0.246 1.2,0.542 2.675,1.266c-2.183,-0.338 -4.313,-0.497 -6.195,-0.433c0.177,-0.214 0.336,-0.456 0.466,-0.73c0.637,-1.342 0.298,-2.819 -0.205,-3.975c-0.387,-0.89 -0.871,-1.59 -1.08,-1.892c-0.169,-0.244 -0.331,-0.467 -0.487,-0.672c-0.73,-0.96 -1.304,-1.5 -1.662,-1.792l-0.014,-0.012Zm-58.682,39.658l-0.106,-0.059l-26.183,54.315c-0.022,0.046 -0.046,0.092 -0.071,0.136c12.013,7.167 50.673,25.677 78.61,37.123c10.457,4.284 19.375,7.594 24.745,8.871l-5.344,-69.783c-0.544,-0.141 -1.097,-0.306 -1.658,-0.497c-20.068,-6.853 -41.918,-14.63 -69.992,-30.106Zm-7.287,-6.482l-25.512,43.085c-0.024,0.04 -0.049,0.08 -0.075,0.118c0,0 -3.032,4.493 -1.293,9.583c0.604,1.769 1.791,3.582 3.815,5.328l26.232,-54.415c-1.437,-1.219 -2.463,-2.46 -3.166,-3.699Zm258.188,-16.832l22.933,70.787l-34.217,0l-21.841,-70.787l21.659,-67.765l34.217,0l-22.751,67.765Zm-65.159,-67.765l31.851,0l0,138.552l-31.851,0l0,-138.552Zm96.464,0l31.851,0l0,138.552l-31.851,0l0,-138.552Zm99.74,0l29.121,0l0,138.552l-27.301,0l-26.027,-72.729l0,72.729l-29.121,0l0,-138.552l27.301,0l26.027,74.024l0,-74.024Zm110.96,61.938l5.277,-0c0.803,0.499 1.303,0.841 1.345,0.869c1.118,0.745 2.7,1.774 4.545,3.946l0,8.762c-2.795,-1.015 -5.502,-2.237 -7.196,-3.079c-4.189,-2.083 -6.153,-3.422 -6.223,-3.465c-0.217,-0.136 -0.431,-0.273 -0.643,-0.41c0.216,-0.153 0.451,-0.335 0.711,-0.556c1.009,-0.86 1.385,-1.448 1.678,-2.024c0.289,-0.57 0.539,-1.214 0.644,-2.519c0.015,-0.192 0.173,-0.282 -0.137,-1.524Zm-17.911,-14.459l-2.774,0l0,-17.912c0,-3.237 -1.456,-4.748 -4.55,-4.748l-6.552,0c-3.094,0 -4.55,1.511 -4.55,4.748l0,79.419c0,3.237 1.456,4.748 4.55,4.748l6.552,0c3.094,0 4.55,-1.511 4.55,-4.748l0,-23.092l-9.1,0l0,-23.955l3.822,0c0.021,0.563 0.115,1.18 0.53,2.246c0.046,0.118 0.682,1.898 2.28,4.595c5.925,9.998 15.069,15.931 16.745,17.038c3.123,2.064 7.433,4.157 8.91,4.814c3.767,1.675 6.619,2.671 8.665,3.27l0,17.89c0,16.186 -7.28,26.761 -26.755,26.761l-25.845,0c-19.475,0 -26.755,-10.575 -26.755,-26.761l0,-85.03c0,-16.186 7.28,-26.761 26.755,-26.761l25.845,0c3.887,0 7.289,0.421 10.243,1.224c-0.431,8.211 -2.171,23.834 -9.071,38.226c-1.296,2.704 -1.942,3.677 -1.945,3.683c-0.796,1.312 -1.007,1.971 -1.116,2.735c-0.04,0.279 -0.068,0.584 -0.06,0.947c-0.046,0.076 -0.084,0.143 -0.116,0.198c-0.09,0.155 -0.175,0.31 -0.257,0.466Z" style="fill:#fff;"/><g id="KING"></g><path d="M548.767,166.232l0,52.104l-318.332,0l0,-52.104l318.332,0Zm-94.969,42.641l3.376,0l0,-25.896l0.163,0l14.722,25.896l3.376,0l0,-33.178l-3.376,0l0,25.414l-0.163,0l-14.519,-25.414l-3.579,0l0,33.178Zm-36.033,-0l3.498,0l0,-33.178l-3.498,0l0,33.178Zm-61.248,0l3.294,0l0,-26.523l0.163,0l9.557,26.523l2.562,0l9.557,-26.523l0.163,0l0,26.523l3.416,0l0,-33.178l-4.718,0l-9.517,26.378l-0.203,0l-9.557,-26.378l-4.718,0l0,33.178Zm-93.215,0.386c1.274,0 2.745,-0.088 4.413,-0.265c1.667,-0.177 3.179,-0.41 4.535,-0.699l0,-17.264l-9.72,0l0,3.52l6.344,0l0,10.802c-0.678,0.096 -1.552,0.185 -2.623,0.265c-1.071,0.08 -2.027,0.121 -2.867,0.121c-1.871,0 -3.369,-0.161 -4.494,-0.482c-1.125,-0.321 -1.972,-0.94 -2.542,-1.857c-0.569,-0.916 -0.949,-2.266 -1.139,-4.051c-0.19,-1.784 -0.285,-4.139 -0.285,-7.065c0,-2.636 0.081,-4.798 0.244,-6.486c0.163,-1.688 0.454,-3.006 0.874,-3.954c0.42,-0.948 1.01,-1.632 1.769,-2.049c0.759,-0.418 1.728,-0.675 2.908,-0.772c1.179,-0.096 2.61,-0.145 4.291,-0.145c0.786,0 1.844,0.072 3.172,0.217c1.329,0.145 2.644,0.33 3.945,0.555l0,-3.376c-0.813,-0.193 -1.728,-0.362 -2.745,-0.506c-1.017,-0.145 -2.054,-0.257 -3.111,-0.338c-1.057,-0.08 -2.047,-0.121 -2.969,-0.121c-2.44,0 -4.433,0.225 -5.978,0.675c-1.545,0.45 -2.745,1.278 -3.599,2.484c-0.854,1.206 -1.451,2.918 -1.789,5.136c-0.339,2.218 -0.508,5.112 -0.508,8.68c0,3.569 0.163,6.462 0.488,8.68c0.325,2.218 0.908,3.93 1.749,5.136c0.841,1.206 2.04,2.033 3.599,2.484c1.559,0.45 3.572,0.675 6.039,0.675Zm38.067,-0.386l3.579,0l2.847,-9.066l12.567,0l2.888,9.066l3.66,0l-10.574,-33.178l-4.392,0l-10.574,33.178Zm7.483,-12.683l5.124,-16.251l0.203,0l5.124,16.251l-10.452,0Zm209.977,13.069c1.274,0 2.745,-0.088 4.413,-0.265c1.667,-0.177 3.179,-0.41 4.535,-0.699l0,-17.264l-9.72,0l0,3.52l6.344,0l0,10.802c-0.678,0.096 -1.552,0.185 -2.623,0.265c-1.071,0.08 -2.027,0.121 -2.867,0.121c-1.871,0 -3.369,-0.161 -4.494,-0.482c-1.125,-0.321 -1.972,-0.94 -2.542,-1.857c-0.569,-0.916 -0.949,-2.266 -1.139,-4.051c-0.19,-1.784 -0.285,-4.139 -0.285,-7.065c0,-2.636 0.081,-4.798 0.244,-6.486c0.163,-1.688 0.454,-3.006 0.874,-3.954c0.42,-0.948 1.01,-1.632 1.769,-2.049c0.759,-0.418 1.728,-0.675 2.908,-0.772c1.179,-0.096 2.61,-0.145 4.291,-0.145c0.786,0 1.844,0.072 3.172,0.217c1.329,0.145 2.644,0.33 3.945,0.555l0,-3.376c-0.813,-0.193 -1.728,-0.362 -2.745,-0.506c-1.017,-0.145 -2.054,-0.257 -3.111,-0.338c-1.057,-0.08 -2.047,-0.121 -2.969,-0.121c-2.44,0 -4.433,0.225 -5.978,0.675c-1.545,0.45 -2.745,1.278 -3.599,2.484c-0.854,1.206 -1.451,2.918 -1.789,5.136c-0.339,2.218 -0.508,5.112 -0.508,8.68c0,3.569 0.163,6.462 0.488,8.68c0.325,2.218 0.908,3.93 1.749,5.136c0.841,1.206 2.04,2.033 3.599,2.484c1.559,0.45 3.572,0.675 6.039,0.675Z" style="fill:#fff;"/></g></svg>