<?xml version="1.0" encoding="UTF-8" standalone="no"?><!DOCTYPE svg PUBLIC "-//W3C//DTD SVG 1.1//EN" "http://www.w3.org/Graphics/SVG/1.1/DTD/svg11.dtd"><svg width="100%" height="100%" viewBox="0 0 10 10" version="1.1" xmlns="http://www.w3.org/2000/svg" xmlns:xlink="http://www.w3.org/1999/xlink" xml:space="preserve" xmlns:serif="http://www.serif.com/" style="fill-rule:evenodd;clip-rule:evenodd;stroke-linejoin:round;stroke-miterlimit:2;"><rect id="Artboard6" x="0" y="0" width="9.103" height="9.103" style="fill:none;"/><g><circle cx="4.552" cy="4.552" r="4.552" style="fill:#fff;"/><path d="M7.454,2.706c-0.176,0.243 -0.39,0.455 -0.633,0.626c0.085,1.776 -1.121,3.747 -3.289,3.747c-0.706,0 -1.364,-0.21 -1.914,-0.573c0.632,0.084 1.263,-0.12 1.774,-0.54c-0.545,-0.011 -0.998,-0.38 -1.154,-0.881c0.215,0.038 0.426,0.027 0.619,-0.024c-0.599,-0.133 -1.032,-0.679 -1.019,-1.269c0.186,0.095 0.395,0.151 0.615,0.158c-0.556,-0.39 -0.705,-1.144 -0.37,-1.718c0.593,0.699 1.468,1.157 2.447,1.213c-0.166,-0.778 0.402,-1.42 1.153,-1.42c0.371,0 0.713,0.157 0.958,0.411c0.301,-0.058 0.586,-0.166 0.844,-0.316c-0.099,0.303 -0.306,0.555 -0.579,0.716c0.187,-0.024 0.371,-0.068 0.548,-0.131Z" style="fill:#1a1a1d;fill-rule:nonzero;"/></g></svg>